G04*
G04 #@! TF.GenerationSoftware,Altium Limited,Altium Designer,21.3.2 (30)*
G04*
G04 Layer_Color=32768*
%FSLAX44Y44*%
%MOMM*%
G71*
G04*
G04 #@! TF.SameCoordinates,17D3A228-CD5A-42E2-9B72-4466C132A87E*
G04*
G04*
G04 #@! TF.FilePolarity,Positive*
G04*
G01*
G75*
%ADD34C,0.1000*%
%ADD35C,0.0500*%
D34*
X612500Y30000D02*
X622500D01*
X617500Y25000D02*
Y35000D01*
X612500Y72275D02*
X622500D01*
X617500Y67275D02*
Y77275D01*
X440000Y83668D02*
Y93668D01*
X435000Y88668D02*
X445000D01*
X440000Y25000D02*
Y35000D01*
X435000Y30000D02*
X445000D01*
X680000Y145000D02*
Y155000D01*
X675000Y150000D02*
X685000D01*
X50000Y145000D02*
Y155000D01*
X45000Y150000D02*
X55000D01*
X120000Y145000D02*
Y155000D01*
X115000Y150000D02*
X125000D01*
X190000Y145000D02*
Y155000D01*
X185000Y150000D02*
X195000D01*
X260000Y145000D02*
Y155000D01*
X255000Y150000D02*
X265000D01*
X538181Y145000D02*
Y155000D01*
X533181Y150000D02*
X543181D01*
X610000Y145000D02*
Y155000D01*
X605000Y150000D02*
X615000D01*
X400000Y145000D02*
Y155000D01*
X395000Y150000D02*
X405000D01*
X470000Y145000D02*
Y155000D01*
X465000Y150000D02*
X475000D01*
X330000Y145000D02*
Y155000D01*
X325000Y150000D02*
X335000D01*
X344449Y51242D02*
Y61242D01*
X339449Y56242D02*
X349449D01*
D35*
X604000Y22000D02*
Y38000D01*
X631000Y22000D02*
Y38000D01*
X604000D02*
X631000D01*
X604000Y22000D02*
X631000D01*
X604000Y64275D02*
Y80275D01*
X631000Y64275D02*
Y80275D01*
X604000D02*
X631000D01*
X604000Y64275D02*
X631000D01*
X419000Y76168D02*
X461000D01*
X419000Y101168D02*
X461000D01*
Y76168D02*
Y101168D01*
X419000Y76168D02*
Y101168D01*
X419000Y17500D02*
X461000D01*
X419000Y42500D02*
X461000D01*
Y17500D02*
Y42500D01*
X419000Y17500D02*
Y42500D01*
X667500Y129000D02*
X692500D01*
X667500Y171000D02*
X692500D01*
X667500Y129000D02*
Y171000D01*
X692500Y129000D02*
Y171000D01*
X37500Y129000D02*
X62500D01*
X37500Y171000D02*
X62500D01*
X37500Y129000D02*
Y171000D01*
X62500Y129000D02*
Y171000D01*
X107500Y129000D02*
X132500D01*
X107500Y171000D02*
X132500D01*
X107500Y129000D02*
Y171000D01*
X132500Y129000D02*
Y171000D01*
X177500Y129000D02*
X202500D01*
X177500Y171000D02*
X202500D01*
X177500Y129000D02*
Y171000D01*
X202500Y129000D02*
Y171000D01*
X247500Y129000D02*
X272500D01*
X247500Y171000D02*
X272500D01*
X247500Y129000D02*
Y171000D01*
X272500Y129000D02*
Y171000D01*
X525681Y129000D02*
X550681D01*
X525681Y171000D02*
X550681D01*
X525681Y129000D02*
Y171000D01*
X550681Y129000D02*
Y171000D01*
X597500Y129000D02*
X622500D01*
X597500Y171000D02*
X622500D01*
X597500Y129000D02*
Y171000D01*
X622500Y129000D02*
Y171000D01*
X387500Y129000D02*
X412500D01*
X387500Y171000D02*
X412500D01*
X387500Y129000D02*
Y171000D01*
X412500Y129000D02*
Y171000D01*
X457500Y129000D02*
X482500D01*
X457500Y171000D02*
X482500D01*
X457500Y129000D02*
Y171000D01*
X482500Y129000D02*
Y171000D01*
X317500Y129000D02*
X342500D01*
X317500Y171000D02*
X342500D01*
X317500Y129000D02*
Y171000D01*
X342500Y129000D02*
Y171000D01*
X291949Y93243D02*
X396949D01*
X291949Y19243D02*
X396949D01*
Y93243D01*
X291949Y19243D02*
Y93243D01*
M02*
