G04*
G04 #@! TF.GenerationSoftware,Altium Limited,Altium Designer,21.3.2 (30)*
G04*
G04 Layer_Color=8388736*
%FSLAX44Y44*%
%MOMM*%
G71*
G04*
G04 #@! TF.SameCoordinates,17D3A228-CD5A-42E2-9B72-4466C132A87E*
G04*
G04*
G04 #@! TF.FilePolarity,Positive*
G04*
G01*
G75*
%ADD12C,0.2000*%
%ADD33C,0.1500*%
D12*
X508577Y25475D02*
X547528D01*
X508577D02*
Y74525D01*
X547528D01*
Y25475D02*
Y74525D01*
X28773Y118223D02*
X126573D01*
X28773Y20423D02*
Y118223D01*
Y20423D02*
X126573D01*
Y118223D01*
X666800Y22100D02*
X693200D01*
Y77900D01*
X666800D02*
X693200D01*
X666800Y22100D02*
Y77900D01*
D33*
X697150Y200000D02*
G03*
X697150Y200000I-17150J0D01*
G01*
X627150D02*
G03*
X627150Y200000I-17150J0D01*
G01*
X555331Y200000D02*
G03*
X555331Y200000I-17150J0D01*
G01*
X487150Y200000D02*
G03*
X487150Y200000I-17150J0D01*
G01*
X417150D02*
G03*
X417150Y200000I-17150J0D01*
G01*
X347150D02*
G03*
X347150Y200000I-17150J0D01*
G01*
X277150D02*
G03*
X277150Y200000I-17150J0D01*
G01*
X207150D02*
G03*
X207150Y200000I-17150J0D01*
G01*
X137150D02*
G03*
X137150Y200000I-17150J0D01*
G01*
X67150D02*
G03*
X67150Y200000I-17150J0D01*
G01*
M02*
