G04*
G04 #@! TF.GenerationSoftware,Altium Limited,Altium Designer,21.3.2 (30)*
G04*
G04 Layer_Color=32768*
%FSLAX44Y44*%
%MOMM*%
G71*
G04*
G04 #@! TF.SameCoordinates,17D3A228-CD5A-42E2-9B72-4466C132A87E*
G04*
G04*
G04 #@! TF.FilePolarity,Positive*
G04*
G01*
G75*
%ADD12C,0.2000*%
D12*
X680000Y222227D02*
G03*
X680000Y177773I0J-22227D01*
G01*
D02*
G03*
X680000Y222227I0J22227D01*
G01*
X610000D02*
G03*
X610000Y177773I0J-22227D01*
G01*
D02*
G03*
X610000Y222227I0J22227D01*
G01*
X538181Y222227D02*
G03*
X538181Y177773I0J-22227D01*
G01*
D02*
G03*
X538181Y222227I0J22227D01*
G01*
X470000Y222227D02*
G03*
X470000Y177773I0J-22227D01*
G01*
D02*
G03*
X470000Y222227I0J22227D01*
G01*
X400000D02*
G03*
X400000Y177773I0J-22227D01*
G01*
D02*
G03*
X400000Y222227I0J22227D01*
G01*
X330000D02*
G03*
X330000Y177773I0J-22227D01*
G01*
D02*
G03*
X330000Y222227I0J22227D01*
G01*
X260000D02*
G03*
X260000Y177773I0J-22227D01*
G01*
D02*
G03*
X260000Y222227I0J22227D01*
G01*
X190000D02*
G03*
X190000Y177773I0J-22227D01*
G01*
D02*
G03*
X190000Y222227I0J22227D01*
G01*
X120000D02*
G03*
X120000Y177773I0J-22227D01*
G01*
D02*
G03*
X120000Y222227I0J22227D01*
G01*
X50000D02*
G03*
X50000Y177773I0J-22227D01*
G01*
D02*
G03*
X50000Y222227I0J22227D01*
G01*
X486571Y20475D02*
X569534D01*
X486571D02*
Y79525D01*
X569534D01*
Y20475D02*
Y79525D01*
X27773Y119223D02*
X127573D01*
X27773Y19423D02*
Y119223D01*
Y19423D02*
X127573D01*
Y119223D01*
X665800Y21100D02*
X694200D01*
Y78900D01*
X665800D02*
X694200D01*
X665800Y21100D02*
Y78900D01*
M02*
