G04*
G04 #@! TF.GenerationSoftware,Altium Limited,Altium Designer,21.3.2 (30)*
G04*
G04 Layer_Color=16711935*
%FSLAX44Y44*%
%MOMM*%
G71*
G04*
G04 #@! TF.SameCoordinates,17D3A228-CD5A-42E2-9B72-4466C132A87E*
G04*
G04*
G04 #@! TF.FilePolarity,Positive*
G04*
G01*
G75*
%ADD34C,0.1000*%
D34*
X390449Y67242D02*
G03*
X390449Y67242I-5000J0D01*
G01*
X607000Y23250D02*
Y36750D01*
X628000Y23250D02*
Y36750D01*
X607000D02*
X628000D01*
X607000Y23250D02*
X628000D01*
X607000Y65525D02*
Y79025D01*
X628000Y65525D02*
Y79025D01*
X607000D02*
X628000D01*
X607000Y65525D02*
X628000D01*
X429500Y81918D02*
X450500D01*
X429500Y95418D02*
X450500D01*
Y81918D02*
Y95418D01*
X429500Y81918D02*
Y95418D01*
X429500Y23250D02*
X450500D01*
X429500Y36750D02*
X450500D01*
Y23250D02*
Y36750D01*
X429500Y23250D02*
Y36750D01*
X673250Y139500D02*
X686750D01*
X673250Y160500D02*
X686750D01*
X673250Y139500D02*
Y160500D01*
X686750Y139500D02*
Y160500D01*
X43250Y139500D02*
X56750D01*
X43250Y160500D02*
X56750D01*
X43250Y139500D02*
Y160500D01*
X56750Y139500D02*
Y160500D01*
X113250Y139500D02*
X126750D01*
X113250Y160500D02*
X126750D01*
X113250Y139500D02*
Y160500D01*
X126750Y139500D02*
Y160500D01*
X183250Y139500D02*
X196750D01*
X183250Y160500D02*
X196750D01*
X183250Y139500D02*
Y160500D01*
X196750Y139500D02*
Y160500D01*
X253250Y139500D02*
X266750D01*
X253250Y160500D02*
X266750D01*
X253250Y139500D02*
Y160500D01*
X266750Y139500D02*
Y160500D01*
X531431Y139500D02*
X544931D01*
X531431Y160500D02*
X544931D01*
X531431Y139500D02*
Y160500D01*
X544931Y139500D02*
Y160500D01*
X603250Y139500D02*
X616750D01*
X603250Y160500D02*
X616750D01*
X603250Y139500D02*
Y160500D01*
X616750Y139500D02*
Y160500D01*
X393250Y139500D02*
X406750D01*
X393250Y160500D02*
X406750D01*
X393250Y139500D02*
Y160500D01*
X406750Y139500D02*
Y160500D01*
X463250Y139500D02*
X476750D01*
X463250Y160500D02*
X476750D01*
X463250Y139500D02*
Y160500D01*
X476750Y139500D02*
Y160500D01*
X323250Y139500D02*
X336750D01*
X323250Y160500D02*
X336750D01*
X323250Y139500D02*
Y160500D01*
X336750Y139500D02*
Y160500D01*
X294449Y76242D02*
X394449D01*
X294449Y36242D02*
X394449D01*
Y76242D01*
X294449Y36242D02*
Y76242D01*
M02*
