G04*
G04 #@! TF.GenerationSoftware,Altium Limited,Altium Designer,21.3.2 (30)*
G04*
G04 Layer_Color=8421504*
%FSLAX44Y44*%
%MOMM*%
G71*
G04*
G04 #@! TF.SameCoordinates,17D3A228-CD5A-42E2-9B72-4466C132A87E*
G04*
G04*
G04 #@! TF.FilePolarity,Positive*
G04*
G01*
G75*
%ADD14R,1.0000X1.3000*%
%ADD15R,1.2000X1.4500*%
%ADD16R,1.4500X1.2000*%
%ADD17R,2.4692X0.6221*%
G04:AMPARAMS|DCode=18|XSize=2.4692mm|YSize=0.6221mm|CornerRadius=0.3111mm|HoleSize=0mm|Usage=FLASHONLY|Rotation=180.000|XOffset=0mm|YOffset=0mm|HoleType=Round|Shape=RoundedRectangle|*
%AMROUNDEDRECTD18*
21,1,2.4692,0.0000,0,0,180.0*
21,1,1.8470,0.6221,0,0,180.0*
1,1,0.6221,-0.9235,0.0000*
1,1,0.6221,0.9235,0.0000*
1,1,0.6221,0.9235,0.0000*
1,1,0.6221,-0.9235,0.0000*
%
%ADD18ROUNDEDRECTD18*%
G04:AMPARAMS|DCode=19|XSize=0.6mm|YSize=1.45mm|CornerRadius=0.051mm|HoleSize=0mm|Usage=FLASHONLY|Rotation=0.000|XOffset=0mm|YOffset=0mm|HoleType=Round|Shape=RoundedRectangle|*
%AMROUNDEDRECTD19*
21,1,0.6000,1.3480,0,0,0.0*
21,1,0.4980,1.4500,0,0,0.0*
1,1,0.1020,0.2490,-0.6740*
1,1,0.1020,-0.2490,-0.6740*
1,1,0.1020,-0.2490,0.6740*
1,1,0.1020,0.2490,0.6740*
%
%ADD19ROUNDEDRECTD19*%
D14*
X610000Y30000D02*
D03*
X625000D02*
D03*
X610000Y72275D02*
D03*
X625000D02*
D03*
D15*
X450000Y88668D02*
D03*
X430000D02*
D03*
X450000Y30000D02*
D03*
X430000D02*
D03*
D16*
X680000Y140000D02*
D03*
Y160000D02*
D03*
X50000Y140000D02*
D03*
Y160000D02*
D03*
X120000Y140000D02*
D03*
Y160000D02*
D03*
X190000Y140000D02*
D03*
Y160000D02*
D03*
X260000Y140000D02*
D03*
Y160000D02*
D03*
X538181Y140000D02*
D03*
Y160000D02*
D03*
X610000Y140000D02*
D03*
Y160000D02*
D03*
X400000Y140000D02*
D03*
Y160000D02*
D03*
X470000Y140000D02*
D03*
Y160000D02*
D03*
X330000Y140000D02*
D03*
Y160000D02*
D03*
D17*
X552188Y30950D02*
D03*
D18*
Y43650D02*
D03*
Y56350D02*
D03*
Y69050D02*
D03*
X503917D02*
D03*
Y56350D02*
D03*
Y43650D02*
D03*
Y30950D02*
D03*
D19*
X388899Y83492D02*
D03*
X376199D02*
D03*
X363499D02*
D03*
X350799D02*
D03*
X338099D02*
D03*
X325399D02*
D03*
X312699D02*
D03*
X299999D02*
D03*
X388899Y28993D02*
D03*
X376199D02*
D03*
X363499D02*
D03*
X350799D02*
D03*
X338099D02*
D03*
X325399D02*
D03*
X312699D02*
D03*
X299999D02*
D03*
M02*
