G04*
G04 #@! TF.GenerationSoftware,Altium Limited,Altium Designer,21.3.2 (30)*
G04*
G04 Layer_Physical_Order=1*
G04 Layer_Color=255*
%FSLAX44Y44*%
%MOMM*%
G71*
G04*
G04 #@! TF.SameCoordinates,17D3A228-CD5A-42E2-9B72-4466C132A87E*
G04*
G04*
G04 #@! TF.FilePolarity,Positive*
G04*
G01*
G75*
%ADD14R,1.0000X1.3000*%
%ADD15R,1.2000X1.4500*%
%ADD16R,1.4500X1.2000*%
%ADD17R,2.4692X0.6221*%
G04:AMPARAMS|DCode=18|XSize=2.4692mm|YSize=0.6221mm|CornerRadius=0.3111mm|HoleSize=0mm|Usage=FLASHONLY|Rotation=180.000|XOffset=0mm|YOffset=0mm|HoleType=Round|Shape=RoundedRectangle|*
%AMROUNDEDRECTD18*
21,1,2.4692,0.0000,0,0,180.0*
21,1,1.8470,0.6221,0,0,180.0*
1,1,0.6221,-0.9235,0.0000*
1,1,0.6221,0.9235,0.0000*
1,1,0.6221,0.9235,0.0000*
1,1,0.6221,-0.9235,0.0000*
%
%ADD18ROUNDEDRECTD18*%
G04:AMPARAMS|DCode=19|XSize=0.6mm|YSize=1.45mm|CornerRadius=0.051mm|HoleSize=0mm|Usage=FLASHONLY|Rotation=0.000|XOffset=0mm|YOffset=0mm|HoleType=Round|Shape=RoundedRectangle|*
%AMROUNDEDRECTD19*
21,1,0.6000,1.3480,0,0,0.0*
21,1,0.4980,1.4500,0,0,0.0*
1,1,0.1020,0.2490,-0.6740*
1,1,0.1020,-0.2490,-0.6740*
1,1,0.1020,-0.2490,0.6740*
1,1,0.1020,0.2490,0.6740*
%
%ADD19ROUNDEDRECTD19*%
%ADD24C,1.2500*%
%ADD25R,1.2500X1.2500*%
%ADD26C,1.4500*%
%ADD27R,1.4500X1.4500*%
%ADD28C,1.5700*%
%ADD29R,1.5700X1.5700*%
%ADD31C,0.5000*%
%ADD32C,1.2700*%
D14*
X610000Y30000D02*
D03*
X625000D02*
D03*
X610000Y72275D02*
D03*
X625000D02*
D03*
D15*
X450000Y88668D02*
D03*
X430000D02*
D03*
X450000Y30000D02*
D03*
X430000D02*
D03*
D16*
X680000Y140000D02*
D03*
Y160000D02*
D03*
X50000Y140000D02*
D03*
Y160000D02*
D03*
X120000Y140000D02*
D03*
Y160000D02*
D03*
X190000Y140000D02*
D03*
Y160000D02*
D03*
X260000Y140000D02*
D03*
Y160000D02*
D03*
X538181Y140000D02*
D03*
Y160000D02*
D03*
X610000Y140000D02*
D03*
Y160000D02*
D03*
X400000Y140000D02*
D03*
Y160000D02*
D03*
X470000Y140000D02*
D03*
Y160000D02*
D03*
X330000Y140000D02*
D03*
Y160000D02*
D03*
D17*
X552188Y30950D02*
D03*
D18*
Y43650D02*
D03*
Y56350D02*
D03*
Y69050D02*
D03*
X503917D02*
D03*
Y56350D02*
D03*
Y43650D02*
D03*
Y30950D02*
D03*
D19*
X388899Y83492D02*
D03*
X376199D02*
D03*
X363499D02*
D03*
X350799D02*
D03*
X338099D02*
D03*
X325399D02*
D03*
X312699D02*
D03*
X299999D02*
D03*
X388899Y28993D02*
D03*
X376199D02*
D03*
X363499D02*
D03*
X350799D02*
D03*
X338099D02*
D03*
X325399D02*
D03*
X312699D02*
D03*
X299999D02*
D03*
D24*
X52123Y69323D02*
D03*
X77523Y43923D02*
D03*
D25*
Y94723D02*
D03*
D26*
X680000Y187300D02*
D03*
X610000D02*
D03*
X538181Y187300D02*
D03*
X470000Y187300D02*
D03*
X400000D02*
D03*
X330000D02*
D03*
X260000D02*
D03*
X190000D02*
D03*
X120000D02*
D03*
X50000D02*
D03*
D27*
X680000Y212700D02*
D03*
X610000D02*
D03*
X538181Y212700D02*
D03*
X470000Y212700D02*
D03*
X400000D02*
D03*
X330000D02*
D03*
X260000D02*
D03*
X190000D02*
D03*
X120000D02*
D03*
X50000D02*
D03*
D28*
X680000Y62700D02*
D03*
D29*
Y37300D02*
D03*
D31*
X299999Y83492D02*
Y109999D01*
X300000Y110000D01*
X324706Y120000D02*
X335170D01*
X325399Y86187D02*
Y107993D01*
X325191Y85979D02*
X325399Y86187D01*
X306321Y127071D02*
X325399Y107993D01*
X312699Y83492D02*
Y97301D01*
X317250Y127456D02*
Y137071D01*
Y127456D02*
X324706Y120000D01*
X242929Y127071D02*
X306321D01*
X299999Y70001D02*
Y83492D01*
X450000Y45679D02*
Y88668D01*
X430000Y69850D02*
X430000Y69850D01*
X430000Y69850D02*
Y88668D01*
X75742Y129250D02*
X76633Y128359D01*
Y95613D02*
Y128359D01*
Y95613D02*
X77523Y94723D01*
X354908Y121850D02*
X374771Y101987D01*
X350400Y83892D02*
Y109600D01*
X374771Y101987D02*
X382080D01*
X350400Y83892D02*
X350799Y83492D01*
X349400Y121850D02*
X354908D01*
X331250Y140000D02*
X349400Y121850D01*
X350000Y110000D02*
X350400Y109600D01*
X478434Y43650D02*
X503917D01*
X470000Y50000D02*
X472084D01*
X478434Y43650D01*
X625000Y72275D02*
X625516Y71759D01*
Y49873D02*
Y71759D01*
Y49873D02*
X626032Y49357D01*
X611402Y45603D02*
Y56238D01*
X610000Y57640D02*
X611402Y56238D01*
X610000Y30000D02*
Y44201D01*
X611402Y45603D01*
X625137Y10821D02*
Y29863D01*
Y10821D02*
X625274Y10684D01*
X625000Y30000D02*
X625137Y29863D01*
X581566Y43650D02*
X587916Y50000D01*
X590000D01*
X542953Y43650D02*
X581566D01*
X610000Y72275D02*
X612500Y74775D01*
X610000Y57640D02*
Y72275D01*
X410000Y32929D02*
Y40000D01*
X494117Y30716D02*
X499669D01*
X490000Y27457D02*
X492929Y30386D01*
X487071Y20000D02*
X490000Y22929D01*
X458750Y20000D02*
X487071D01*
X450000Y28750D02*
X458750Y20000D01*
X493787Y30386D02*
X494117Y30716D01*
X492929Y30386D02*
X493787D01*
X490000Y22929D02*
Y27457D01*
X412929Y30000D02*
X430000D01*
X410000Y32929D02*
X412929Y30000D01*
X480000Y60000D02*
Y70000D01*
X483650Y56350D02*
X503917D01*
X480000Y60000D02*
X483650Y56350D01*
X280000Y50000D02*
Y70000D01*
X299999Y70001D02*
X310000Y60000D01*
X309770Y50000D02*
X312699Y47071D01*
X310000Y60000D02*
X324821D01*
X376075Y30261D02*
X376199Y30385D01*
X280000Y50000D02*
X309770D01*
X77523Y43923D02*
X133923D01*
X499669Y30716D02*
X500000Y30386D01*
X450000Y28750D02*
Y30000D01*
X150000Y32929D02*
X153936Y28993D01*
X150000Y32929D02*
Y110000D01*
X153936Y28993D02*
X299999D01*
X124750Y135250D02*
X150000Y110000D01*
X22929Y10000D02*
X322470D01*
X20000Y12929D02*
X22929Y10000D01*
X322470D02*
X325399Y12929D01*
X20000D02*
Y137071D01*
X363499Y13499D02*
Y28993D01*
X542953Y56350D02*
X552188D01*
X530000Y69303D02*
X542953Y56350D01*
X530000Y69303D02*
Y90000D01*
X503917Y56350D02*
X530253D01*
X542953Y43650D01*
X370000Y50000D02*
X376199Y43801D01*
Y30385D02*
Y43801D01*
X350169Y50000D02*
X370000D01*
X342495Y42326D02*
X350169Y50000D01*
X441500Y42750D02*
X447071D01*
X450000Y45679D01*
X430000Y31250D02*
X441500Y42750D01*
X430000Y30000D02*
Y31250D01*
X300000Y230000D02*
X327071D01*
X330000Y227071D01*
Y212700D02*
Y227071D01*
X380000Y130000D02*
Y137071D01*
X382929Y140000D01*
X400000D01*
X312699Y28993D02*
Y47071D01*
X520000Y140000D02*
X538181D01*
X314321D02*
X317250Y137071D01*
X260000Y140000D02*
X314321D01*
X338099Y83492D02*
Y117071D01*
X335170Y120000D02*
X338099Y117071D01*
X450000Y140000D02*
X470000D01*
X552663Y30475D02*
X609525D01*
X552188Y30950D02*
X552663Y30475D01*
X609525D02*
X610000Y30000D01*
X612500Y74775D02*
Y82500D01*
X620000Y90000D01*
X562929D02*
X580000D01*
X560000Y69614D02*
Y87071D01*
X562929Y90000D01*
X552188Y69050D02*
X559436D01*
X560000Y69614D01*
X552188Y69050D02*
X552422Y69284D01*
X500000Y12929D02*
Y30386D01*
X680000Y62700D02*
X710257Y92957D01*
Y209771D01*
X707328Y212700D02*
X710257Y209771D01*
X680000Y212700D02*
X707328D01*
X652700Y90000D02*
X680000Y62700D01*
X620000Y90000D02*
X652700D01*
X240000Y130000D02*
X242929Y127071D01*
X240000Y130000D02*
Y137071D01*
X237071Y140000D02*
X240000Y137071D01*
X414929Y112000D02*
X650750D01*
X402929Y120000D02*
X607071D01*
X375839Y78823D02*
X376618D01*
X610000Y122929D02*
Y140000D01*
X398404Y115475D02*
X402929Y120000D01*
X650750Y112000D02*
X678750Y140000D01*
X607071Y120000D02*
X610000Y122929D01*
X410000Y107071D02*
X414929Y112000D01*
X410000Y75550D02*
Y107071D01*
X450000Y30000D02*
X450000Y30000D01*
X450000Y12929D02*
Y30000D01*
X447071Y10000D02*
X450000Y12929D01*
X388899Y24743D02*
Y28993D01*
Y24743D02*
X403642Y10000D01*
X447071D01*
X342495Y42326D02*
X346614Y38207D01*
X324821Y60000D02*
X342495Y42326D01*
X325399Y12929D02*
Y28993D01*
X346614Y37428D02*
X350799Y33242D01*
X346614Y37428D02*
Y38207D01*
X350799Y28993D02*
Y33242D01*
X190000Y140000D02*
X237071D01*
X120000D02*
X121250D01*
X124750Y136500D01*
Y135250D02*
Y136500D01*
X672700Y30000D02*
X680000Y37300D01*
X625000Y30000D02*
X672700D01*
X678750Y140000D02*
X680000D01*
X398404Y75268D02*
Y115475D01*
X393878Y70743D02*
X398404Y75268D01*
X379220Y62743D02*
X397192D01*
X367684Y74278D02*
Y75057D01*
X397192Y62743D02*
X410000Y75550D01*
X363499Y79243D02*
Y83492D01*
X383920Y70743D02*
X393878D01*
X367684Y74278D02*
X379220Y62743D01*
X380384Y74278D02*
X383920Y70743D01*
X363499Y79243D02*
X367684Y75057D01*
X376618Y78823D02*
X380384Y75057D01*
Y74278D02*
Y75057D01*
X388899Y83492D02*
Y87743D01*
X388399Y88243D02*
Y95668D01*
Y88243D02*
X388899Y87743D01*
X382080Y101987D02*
X388399Y95668D01*
X20000Y137071D02*
X22929Y140000D01*
X50000D01*
X330000D02*
X331250D01*
X680000Y160000D02*
Y187300D01*
X610000Y160000D02*
Y187300D01*
X538181Y160000D02*
Y187300D01*
X470000Y160000D02*
Y187300D01*
X400000Y160000D02*
Y187300D01*
X330000Y160000D02*
Y187300D01*
X260000Y160000D02*
Y187300D01*
X190000Y160000D02*
Y187300D01*
X120000Y160000D02*
Y187300D01*
X50000Y160000D02*
Y187300D01*
X610000Y212700D02*
X680000D01*
X610000Y212700D02*
X610000Y212700D01*
X538181Y212700D02*
X538181Y212700D01*
X610000D01*
X470000D02*
X538181D01*
X538181Y212700D01*
X470000Y212700D02*
X470000Y212700D01*
X400000Y212700D02*
X470000D01*
X330000D02*
X400000D01*
X260000D02*
X330000D01*
X190000D02*
X260000D01*
X120000D02*
X190000D01*
X50000D02*
X120000D01*
D32*
X299999Y109999D02*
D03*
X312699Y97301D02*
D03*
X430000Y69850D02*
D03*
X75742Y129250D02*
D03*
X350000Y110000D02*
D03*
X470000Y50000D02*
D03*
X626032Y49357D02*
D03*
X625274Y10684D02*
D03*
X590000Y50000D02*
D03*
X410000Y40000D02*
D03*
X480000Y70000D02*
D03*
X280000D02*
D03*
X133923Y43923D02*
D03*
X530000Y90000D02*
D03*
X363499Y13499D02*
D03*
X300000Y230000D02*
D03*
X380000Y130000D02*
D03*
X520000Y140000D02*
D03*
X450000D02*
D03*
X580000Y90000D02*
D03*
X500000Y12929D02*
D03*
M02*
