G04*
G04 #@! TF.GenerationSoftware,Altium Limited,Altium Designer,21.3.2 (30)*
G04*
G04 Layer_Color=8388736*
%FSLAX44Y44*%
%MOMM*%
G71*
G04*
G04 #@! TF.SameCoordinates,17D3A228-CD5A-42E2-9B72-4466C132A87E*
G04*
G04*
G04 #@! TF.FilePolarity,Negative*
G04*
G01*
G75*
%ADD17R,2.4692X0.6221*%
G04:AMPARAMS|DCode=18|XSize=2.4692mm|YSize=0.6221mm|CornerRadius=0.3111mm|HoleSize=0mm|Usage=FLASHONLY|Rotation=180.000|XOffset=0mm|YOffset=0mm|HoleType=Round|Shape=RoundedRectangle|*
%AMROUNDEDRECTD18*
21,1,2.4692,0.0000,0,0,180.0*
21,1,1.8470,0.6221,0,0,180.0*
1,1,0.6221,-0.9235,0.0000*
1,1,0.6221,0.9235,0.0000*
1,1,0.6221,0.9235,0.0000*
1,1,0.6221,-0.9235,0.0000*
%
%ADD18ROUNDEDRECTD18*%
%ADD20R,1.2032X1.5032*%
%ADD21R,1.4032X1.6532*%
%ADD22R,1.6532X1.4032*%
G04:AMPARAMS|DCode=23|XSize=0.8032mm|YSize=1.6532mm|CornerRadius=0.1526mm|HoleSize=0mm|Usage=FLASHONLY|Rotation=0.000|XOffset=0mm|YOffset=0mm|HoleType=Round|Shape=RoundedRectangle|*
%AMROUNDEDRECTD23*
21,1,0.8032,1.3480,0,0,0.0*
21,1,0.4980,1.6532,0,0,0.0*
1,1,0.3052,0.2490,-0.6740*
1,1,0.3052,-0.2490,-0.6740*
1,1,0.3052,-0.2490,0.6740*
1,1,0.3052,0.2490,0.6740*
%
%ADD23ROUNDEDRECTD23*%
%ADD24C,1.2500*%
%ADD25R,1.2500X1.2500*%
%ADD26C,1.4500*%
%ADD27R,1.4500X1.4500*%
%ADD28C,1.5700*%
%ADD29R,1.5700X1.5700*%
%ADD30C,1.4732*%
D17*
X552188Y30950D02*
D03*
D18*
Y43650D02*
D03*
Y56350D02*
D03*
Y69050D02*
D03*
X503917D02*
D03*
Y56350D02*
D03*
Y43650D02*
D03*
Y30950D02*
D03*
D20*
X610000Y30000D02*
D03*
X625000D02*
D03*
X610000Y72275D02*
D03*
X625000D02*
D03*
D21*
X450000Y88668D02*
D03*
X430000D02*
D03*
X450000Y30000D02*
D03*
X430000D02*
D03*
D22*
X680000Y140000D02*
D03*
Y160000D02*
D03*
X50000Y140000D02*
D03*
Y160000D02*
D03*
X120000Y140000D02*
D03*
Y160000D02*
D03*
X190000Y140000D02*
D03*
Y160000D02*
D03*
X260000Y140000D02*
D03*
Y160000D02*
D03*
X538181Y140000D02*
D03*
Y160000D02*
D03*
X610000Y140000D02*
D03*
Y160000D02*
D03*
X400000Y140000D02*
D03*
Y160000D02*
D03*
X470000Y140000D02*
D03*
Y160000D02*
D03*
X330000Y140000D02*
D03*
Y160000D02*
D03*
D23*
X388899Y83492D02*
D03*
X376199D02*
D03*
X363499D02*
D03*
X350799D02*
D03*
X338099D02*
D03*
X325399D02*
D03*
X312699D02*
D03*
X299999D02*
D03*
X388899Y28993D02*
D03*
X376199D02*
D03*
X363499D02*
D03*
X350799D02*
D03*
X338099D02*
D03*
X325399D02*
D03*
X312699D02*
D03*
X299999D02*
D03*
D24*
X52123Y69323D02*
D03*
X77523Y43923D02*
D03*
D25*
Y94723D02*
D03*
D26*
X680000Y187300D02*
D03*
X610000D02*
D03*
X538181Y187300D02*
D03*
X470000Y187300D02*
D03*
X400000D02*
D03*
X330000D02*
D03*
X260000D02*
D03*
X190000D02*
D03*
X120000D02*
D03*
X50000D02*
D03*
D27*
X680000Y212700D02*
D03*
X610000D02*
D03*
X538181Y212700D02*
D03*
X470000Y212700D02*
D03*
X400000D02*
D03*
X330000D02*
D03*
X260000D02*
D03*
X190000D02*
D03*
X120000D02*
D03*
X50000D02*
D03*
D28*
X680000Y62700D02*
D03*
D29*
Y37300D02*
D03*
D30*
X299999Y109999D02*
D03*
X312699Y97301D02*
D03*
X430000Y69850D02*
D03*
X75742Y129250D02*
D03*
X350000Y110000D02*
D03*
X470000Y50000D02*
D03*
X626032Y49357D02*
D03*
X625274Y10684D02*
D03*
X590000Y50000D02*
D03*
X410000Y40000D02*
D03*
X480000Y70000D02*
D03*
X280000D02*
D03*
X133923Y43923D02*
D03*
X530000Y90000D02*
D03*
X363499Y13499D02*
D03*
X300000Y230000D02*
D03*
X380000Y130000D02*
D03*
X520000Y140000D02*
D03*
X450000D02*
D03*
X580000Y90000D02*
D03*
X500000Y12929D02*
D03*
M02*
