G04*
G04 #@! TF.GenerationSoftware,Altium Limited,Altium Designer,21.3.2 (30)*
G04*
G04 Layer_Physical_Order=2*
G04 Layer_Color=16711680*
%FSLAX44Y44*%
%MOMM*%
G71*
G04*
G04 #@! TF.SameCoordinates,17D3A228-CD5A-42E2-9B72-4466C132A87E*
G04*
G04*
G04 #@! TF.FilePolarity,Positive*
G04*
G01*
G75*
%ADD24C,1.2500*%
%ADD25R,1.2500X1.2500*%
%ADD26C,1.4500*%
%ADD27R,1.4500X1.4500*%
%ADD28C,1.5700*%
%ADD29R,1.5700X1.5700*%
%ADD31C,0.5000*%
%ADD32C,1.2700*%
G36*
X730000Y0D02*
X0D01*
Y240000D01*
X298065D01*
X298232Y238730D01*
X296569Y238284D01*
X294541Y237114D01*
X292886Y235459D01*
X291716Y233431D01*
X291137Y231270D01*
X308863D01*
X308284Y233431D01*
X307114Y235459D01*
X305459Y237114D01*
X303431Y238284D01*
X301768Y238730D01*
X301935Y240000D01*
X730000D01*
Y0D01*
D02*
G37*
%LPC*%
G36*
X547971Y222490D02*
X539451D01*
Y213970D01*
X547971D01*
Y222490D01*
D02*
G37*
G36*
X536911D02*
X528391D01*
Y213970D01*
X536911D01*
Y222490D01*
D02*
G37*
G36*
X479790Y222490D02*
X471270D01*
Y213970D01*
X479790D01*
Y222490D01*
D02*
G37*
G36*
X468730D02*
X460210D01*
Y213970D01*
X468730D01*
Y222490D01*
D02*
G37*
G36*
X689790D02*
X681270D01*
Y213970D01*
X689790D01*
Y222490D01*
D02*
G37*
G36*
X339790D02*
X331270D01*
Y213970D01*
X339790D01*
Y222490D01*
D02*
G37*
G36*
X269790D02*
X261270D01*
Y213970D01*
X269790D01*
Y222490D01*
D02*
G37*
G36*
X129790D02*
X121270D01*
Y213970D01*
X129790D01*
Y222490D01*
D02*
G37*
G36*
X59790D02*
X51270D01*
Y213970D01*
X59790D01*
Y222490D01*
D02*
G37*
G36*
X328730D02*
X320210D01*
Y213970D01*
X328730D01*
Y222490D01*
D02*
G37*
G36*
X258730D02*
X250210D01*
Y213970D01*
X258730D01*
Y222490D01*
D02*
G37*
G36*
X118730D02*
X110210D01*
Y213970D01*
X118730D01*
Y222490D01*
D02*
G37*
G36*
X48730D02*
X40210D01*
Y213970D01*
X48730D01*
Y222490D01*
D02*
G37*
G36*
X678730D02*
X670210D01*
Y213970D01*
X678730D01*
Y222490D01*
D02*
G37*
G36*
X409790D02*
X401270D01*
Y213970D01*
X409790D01*
Y222490D01*
D02*
G37*
G36*
X199790D02*
X191270D01*
Y213970D01*
X199790D01*
Y222490D01*
D02*
G37*
G36*
X188730D02*
X180210D01*
Y213970D01*
X188730D01*
Y222490D01*
D02*
G37*
G36*
X398730D02*
X390210D01*
Y213970D01*
X398730D01*
Y222490D01*
D02*
G37*
G36*
X619790D02*
X611270D01*
Y213970D01*
X619790D01*
Y222490D01*
D02*
G37*
G36*
X608730D02*
X600210D01*
Y213970D01*
X608730D01*
Y222490D01*
D02*
G37*
G36*
X547971Y211430D02*
X539451D01*
Y202910D01*
X547971D01*
Y211430D01*
D02*
G37*
G36*
X536911D02*
X528391D01*
Y202910D01*
X536911D01*
Y211430D01*
D02*
G37*
G36*
X689790Y211430D02*
X681270D01*
Y202910D01*
X689790D01*
Y211430D01*
D02*
G37*
G36*
X678730D02*
X670210D01*
Y202910D01*
X678730D01*
Y211430D01*
D02*
G37*
G36*
X619790Y211430D02*
X611270D01*
Y202910D01*
X619790D01*
Y211430D01*
D02*
G37*
G36*
X608730D02*
X600210D01*
Y202910D01*
X608730D01*
Y211430D01*
D02*
G37*
G36*
X479790Y211430D02*
X471270D01*
Y202910D01*
X479790D01*
Y211430D01*
D02*
G37*
G36*
X468730D02*
X460210D01*
Y202910D01*
X468730D01*
Y211430D01*
D02*
G37*
G36*
X409790Y211430D02*
X401270D01*
Y202910D01*
X409790D01*
Y211430D01*
D02*
G37*
G36*
X398730D02*
X390210D01*
Y202910D01*
X398730D01*
Y211430D01*
D02*
G37*
G36*
X339790Y211430D02*
X331270D01*
Y202910D01*
X339790D01*
Y211430D01*
D02*
G37*
G36*
X328730D02*
X320210D01*
Y202910D01*
X328730D01*
Y211430D01*
D02*
G37*
G36*
X269790D02*
X261270D01*
Y202910D01*
X269790D01*
Y211430D01*
D02*
G37*
G36*
X258730D02*
X250210D01*
Y202910D01*
X258730D01*
Y211430D01*
D02*
G37*
G36*
X199790Y211430D02*
X191270D01*
Y202910D01*
X199790D01*
Y211430D01*
D02*
G37*
G36*
X188730D02*
X180210D01*
Y202910D01*
X188730D01*
Y211430D01*
D02*
G37*
G36*
X129790Y211430D02*
X121270D01*
Y202910D01*
X129790D01*
Y211430D01*
D02*
G37*
G36*
X118730D02*
X110210D01*
Y202910D01*
X118730D01*
Y211430D01*
D02*
G37*
G36*
X59790D02*
X51270D01*
Y202910D01*
X59790D01*
Y211430D01*
D02*
G37*
G36*
X48730D02*
X40210D01*
Y202910D01*
X48730D01*
Y211430D01*
D02*
G37*
G36*
X539530Y197550D02*
X536831D01*
X534224Y196852D01*
X531887Y195502D01*
X529979Y193594D01*
X528629Y191256D01*
X527931Y188650D01*
Y185951D01*
X528629Y183344D01*
X529979Y181006D01*
X531887Y179098D01*
X534224Y177749D01*
X536831Y177050D01*
X539530D01*
X542137Y177749D01*
X544474Y179098D01*
X546383Y181006D01*
X547732Y183344D01*
X548431Y185951D01*
Y188650D01*
X547732Y191256D01*
X546383Y193594D01*
X544474Y195502D01*
X542137Y196852D01*
X539530Y197550D01*
D02*
G37*
G36*
X681349Y197550D02*
X678651D01*
X676044Y196852D01*
X673706Y195502D01*
X671798Y193594D01*
X670449Y191256D01*
X669750Y188649D01*
Y185951D01*
X670449Y183344D01*
X671798Y181006D01*
X673706Y179098D01*
X676044Y177749D01*
X678651Y177050D01*
X681349D01*
X683956Y177749D01*
X686294Y179098D01*
X688202Y181006D01*
X689551Y183344D01*
X690250Y185951D01*
Y188649D01*
X689551Y191256D01*
X688202Y193594D01*
X686294Y195502D01*
X683956Y196852D01*
X681349Y197550D01*
D02*
G37*
G36*
X611349D02*
X608651D01*
X606044Y196852D01*
X603706Y195502D01*
X601798Y193594D01*
X600448Y191256D01*
X599750Y188649D01*
Y185951D01*
X600448Y183344D01*
X601798Y181006D01*
X603706Y179098D01*
X606044Y177749D01*
X608651Y177050D01*
X611349D01*
X613956Y177749D01*
X616294Y179098D01*
X618202Y181006D01*
X619552Y183344D01*
X620250Y185951D01*
Y188649D01*
X619552Y191256D01*
X618202Y193594D01*
X616294Y195502D01*
X613956Y196852D01*
X611349Y197550D01*
D02*
G37*
G36*
X471349D02*
X468651D01*
X466044Y196852D01*
X463706Y195502D01*
X461798Y193594D01*
X460448Y191256D01*
X459750Y188649D01*
Y185951D01*
X460448Y183344D01*
X461798Y181006D01*
X463706Y179098D01*
X466044Y177749D01*
X468651Y177050D01*
X471349D01*
X473956Y177749D01*
X476294Y179098D01*
X478202Y181006D01*
X479552Y183344D01*
X480250Y185951D01*
Y188649D01*
X479552Y191256D01*
X478202Y193594D01*
X476294Y195502D01*
X473956Y196852D01*
X471349Y197550D01*
D02*
G37*
G36*
X401349D02*
X398651D01*
X396044Y196852D01*
X393706Y195502D01*
X391798Y193594D01*
X390448Y191256D01*
X389750Y188649D01*
Y185951D01*
X390448Y183344D01*
X391798Y181006D01*
X393706Y179098D01*
X396044Y177749D01*
X398651Y177050D01*
X401349D01*
X403956Y177749D01*
X406294Y179098D01*
X408202Y181006D01*
X409552Y183344D01*
X410250Y185951D01*
Y188649D01*
X409552Y191256D01*
X408202Y193594D01*
X406294Y195502D01*
X403956Y196852D01*
X401349Y197550D01*
D02*
G37*
G36*
X331349D02*
X328651D01*
X326044Y196852D01*
X323706Y195502D01*
X321798Y193594D01*
X320448Y191256D01*
X319750Y188649D01*
Y185951D01*
X320448Y183344D01*
X321798Y181006D01*
X323706Y179098D01*
X326044Y177749D01*
X328651Y177050D01*
X331349D01*
X333956Y177749D01*
X336294Y179098D01*
X338202Y181006D01*
X339552Y183344D01*
X340250Y185951D01*
Y188649D01*
X339552Y191256D01*
X338202Y193594D01*
X336294Y195502D01*
X333956Y196852D01*
X331349Y197550D01*
D02*
G37*
G36*
X261349D02*
X258651D01*
X256044Y196852D01*
X253706Y195502D01*
X251798Y193594D01*
X250448Y191256D01*
X249750Y188649D01*
Y185951D01*
X250448Y183344D01*
X251798Y181006D01*
X253706Y179098D01*
X256044Y177749D01*
X258651Y177050D01*
X261349D01*
X263956Y177749D01*
X266294Y179098D01*
X268202Y181006D01*
X269552Y183344D01*
X270250Y185951D01*
Y188649D01*
X269552Y191256D01*
X268202Y193594D01*
X266294Y195502D01*
X263956Y196852D01*
X261349Y197550D01*
D02*
G37*
G36*
X191349D02*
X188651D01*
X186044Y196852D01*
X183706Y195502D01*
X181798Y193594D01*
X180448Y191256D01*
X179750Y188649D01*
Y185951D01*
X180448Y183344D01*
X181798Y181006D01*
X183706Y179098D01*
X186044Y177749D01*
X188651Y177050D01*
X191349D01*
X193956Y177749D01*
X196294Y179098D01*
X198202Y181006D01*
X199552Y183344D01*
X200250Y185951D01*
Y188649D01*
X199552Y191256D01*
X198202Y193594D01*
X196294Y195502D01*
X193956Y196852D01*
X191349Y197550D01*
D02*
G37*
G36*
X121349D02*
X118651D01*
X116044Y196852D01*
X113706Y195502D01*
X111798Y193594D01*
X110449Y191256D01*
X109750Y188649D01*
Y185951D01*
X110449Y183344D01*
X111798Y181006D01*
X113706Y179098D01*
X116044Y177749D01*
X118651Y177050D01*
X121349D01*
X123956Y177749D01*
X126294Y179098D01*
X128202Y181006D01*
X129551Y183344D01*
X130250Y185951D01*
Y188649D01*
X129551Y191256D01*
X128202Y193594D01*
X126294Y195502D01*
X123956Y196852D01*
X121349Y197550D01*
D02*
G37*
G36*
X51349D02*
X48651D01*
X46044Y196852D01*
X43706Y195502D01*
X41798Y193594D01*
X40448Y191256D01*
X39750Y188649D01*
Y185951D01*
X40448Y183344D01*
X41798Y181006D01*
X43706Y179098D01*
X46044Y177749D01*
X48651Y177050D01*
X51349D01*
X53956Y177749D01*
X56294Y179098D01*
X58202Y181006D01*
X59552Y183344D01*
X60250Y185951D01*
Y188649D01*
X59552Y191256D01*
X58202Y193594D01*
X56294Y195502D01*
X53956Y196852D01*
X51349Y197550D01*
D02*
G37*
G36*
X308863Y228730D02*
X291137D01*
X291716Y226569D01*
X292886Y224541D01*
X294392Y223036D01*
Y116964D01*
X292885Y115458D01*
X291715Y113430D01*
X291136Y111269D01*
X308862D01*
X308283Y113430D01*
X307113Y115458D01*
X305607Y116963D01*
Y223035D01*
X307114Y224541D01*
X308284Y226569D01*
X308863Y228730D01*
D02*
G37*
G36*
X447071Y155608D02*
X352929D01*
X350783Y155181D01*
X348964Y153965D01*
X346035Y151036D01*
X344819Y149217D01*
X344392Y147071D01*
Y140395D01*
X326185Y122187D01*
X324969Y120368D01*
X324542Y118222D01*
Y117075D01*
X314079Y106611D01*
X313930Y106651D01*
X311468D01*
X309405Y106098D01*
X309395Y106102D01*
X308649Y106731D01*
X308425Y107096D01*
X308862Y108729D01*
X301269D01*
Y101136D01*
X302903Y101573D01*
X303266Y101351D01*
X303896Y100606D01*
X303901Y100593D01*
X303349Y98532D01*
Y96070D01*
X303986Y93692D01*
X305217Y91560D01*
X306958Y89819D01*
X309090Y88588D01*
X311468Y87951D01*
X313272D01*
X314219Y87207D01*
X314392Y86760D01*
Y75608D01*
X287559D01*
X287482Y75741D01*
X285741Y77482D01*
X283609Y78713D01*
X281231Y79350D01*
X278769D01*
X276391Y78713D01*
X274259Y77482D01*
X272518Y75741D01*
X271287Y73609D01*
X270650Y71231D01*
Y68769D01*
X271287Y66391D01*
X272074Y65028D01*
X271341Y63758D01*
X213102D01*
X205608Y71252D01*
Y89446D01*
X205181Y91592D01*
X203965Y93411D01*
X163411Y133965D01*
X161592Y135181D01*
X159446Y135608D01*
X82607D01*
X81483Y136731D01*
X79351Y137962D01*
X76973Y138600D01*
X74511D01*
X72133Y137962D01*
X70001Y136731D01*
X68261Y134991D01*
X67030Y132858D01*
X66392Y130480D01*
Y128019D01*
X67030Y125641D01*
X68261Y123509D01*
X70001Y121768D01*
X72133Y120537D01*
X74511Y119900D01*
X76973D01*
X79351Y120537D01*
X81483Y121768D01*
X83224Y123509D01*
X83735Y124392D01*
X157123D01*
X194392Y87123D01*
Y68929D01*
X194819Y66783D01*
X196035Y64964D01*
X206814Y54185D01*
X208633Y52969D01*
X210779Y52542D01*
X319464D01*
X321610Y52969D01*
X323429Y54185D01*
X333486Y64242D01*
X422441D01*
X422518Y64109D01*
X424259Y62368D01*
X426391Y61137D01*
X428769Y60500D01*
X431231D01*
X433609Y61137D01*
X435741Y62368D01*
X437482Y64109D01*
X438713Y66241D01*
X439350Y68619D01*
Y71081D01*
X438713Y73459D01*
X437482Y75591D01*
X435741Y77332D01*
X433609Y78563D01*
X431231Y79200D01*
X428769D01*
X426391Y78563D01*
X424259Y77332D01*
X422518Y75591D01*
X422441Y75458D01*
X331164D01*
X329018Y75031D01*
X327198Y73815D01*
X326781Y73398D01*
X325608Y73884D01*
Y84748D01*
X342115Y101256D01*
X342760Y102221D01*
X344259Y102518D01*
X346391Y101287D01*
X348769Y100650D01*
X351231D01*
X351380Y100690D01*
X356834Y95236D01*
X358653Y94020D01*
X360799Y93593D01*
X516796D01*
X517222Y92931D01*
X517353Y92354D01*
X516035Y91036D01*
X514819Y89217D01*
X514392Y87071D01*
Y26788D01*
X510830D01*
X508874Y28744D01*
X507054Y29960D01*
X504908Y30387D01*
X414589D01*
X414249Y31657D01*
X415741Y32518D01*
X417482Y34259D01*
X417559Y34392D01*
X460000D01*
X462146Y34819D01*
X463965Y36035D01*
X468620Y40690D01*
X468769Y40650D01*
X471231D01*
X473609Y41287D01*
X475741Y42518D01*
X477482Y44259D01*
X478713Y46391D01*
X479350Y48769D01*
Y51231D01*
X478713Y53609D01*
X477482Y55741D01*
X475741Y57482D01*
X473609Y58713D01*
X471231Y59350D01*
X469077D01*
X468396Y60465D01*
X471495Y63565D01*
X472518Y64259D01*
X474259Y62518D01*
X476391Y61287D01*
X478769Y60650D01*
X481231D01*
X483609Y61287D01*
X485741Y62518D01*
X487482Y64259D01*
X488713Y66391D01*
X489350Y68769D01*
Y71231D01*
X488713Y73609D01*
X487482Y75741D01*
X485741Y77482D01*
X483609Y78713D01*
X481231Y79350D01*
X478769D01*
X476391Y78713D01*
X474259Y77482D01*
X472518Y75741D01*
X472441Y75608D01*
X470000D01*
X467854Y75181D01*
X466035Y73965D01*
X457677Y65608D01*
X446790D01*
X444644Y65181D01*
X442825Y63965D01*
X436317Y57458D01*
X355593D01*
X353447Y57031D01*
X351627Y55815D01*
X345343Y49531D01*
X141482D01*
X141405Y49664D01*
X139664Y51405D01*
X137532Y52636D01*
X135154Y53273D01*
X132692D01*
X130314Y52636D01*
X128182Y51405D01*
X126441Y49664D01*
X125210Y47532D01*
X124573Y45154D01*
Y42692D01*
X125210Y40314D01*
X126441Y38182D01*
X128182Y36441D01*
X130314Y35210D01*
X132692Y34573D01*
X135154D01*
X137532Y35210D01*
X139664Y36441D01*
X141405Y38182D01*
X141482Y38315D01*
X347666D01*
X349812Y38742D01*
X351631Y39958D01*
X357915Y46242D01*
X401341D01*
X402074Y44972D01*
X401287Y43609D01*
X400650Y41231D01*
Y38769D01*
X401287Y36391D01*
X402518Y34259D01*
X404259Y32518D01*
X405751Y31657D01*
X405411Y30387D01*
X404779D01*
X402633Y29960D01*
X400814Y28744D01*
X387677Y15608D01*
X381864D01*
X381314Y16157D01*
X379495Y17373D01*
X377349Y17800D01*
X371813D01*
X370981Y19240D01*
X369240Y20981D01*
X367108Y22212D01*
X364730Y22849D01*
X362268D01*
X359890Y22212D01*
X357758Y20981D01*
X356017Y19240D01*
X354786Y17108D01*
X354149Y14730D01*
Y12268D01*
X354786Y9890D01*
X356017Y7758D01*
X357758Y6017D01*
X359890Y4786D01*
X362268Y4149D01*
X364730D01*
X367108Y4786D01*
X369240Y6017D01*
X369807Y6584D01*
X375026D01*
X375576Y6035D01*
X377395Y4819D01*
X379541Y4392D01*
X390000D01*
X392146Y4819D01*
X393965Y6035D01*
X407102Y19171D01*
X491341D01*
X492074Y17901D01*
X491287Y16538D01*
X490650Y14160D01*
Y11698D01*
X491287Y9320D01*
X492518Y7188D01*
X494259Y5447D01*
X496391Y4216D01*
X498769Y3579D01*
X501231D01*
X503609Y4216D01*
X505741Y5447D01*
X507482Y7188D01*
X507704Y7573D01*
X577119D01*
X577972Y6719D01*
X579792Y5503D01*
X581938Y5077D01*
X617715D01*
X617792Y4943D01*
X619533Y3202D01*
X621665Y1971D01*
X624043Y1334D01*
X626505D01*
X628882Y1971D01*
X631015Y3202D01*
X632755Y4943D01*
X633986Y7075D01*
X634624Y9453D01*
Y11915D01*
X633986Y14293D01*
X632755Y16425D01*
X631015Y18166D01*
X628882Y19397D01*
X626505Y20034D01*
X624043D01*
X621665Y19397D01*
X619533Y18166D01*
X617792Y16425D01*
X617715Y16292D01*
X585049D01*
Y38734D01*
X584631Y40837D01*
X584741Y40994D01*
X585555Y41770D01*
X586391Y41287D01*
X588769Y40650D01*
X591231D01*
X593609Y41287D01*
X595741Y42518D01*
X597294Y44071D01*
X618287D01*
X618550Y43616D01*
X620291Y41875D01*
X622423Y40644D01*
X624801Y40007D01*
X627263D01*
X629641Y40644D01*
X631773Y41875D01*
X633513Y43616D01*
X634744Y45748D01*
X635382Y48126D01*
Y50588D01*
X634744Y52966D01*
X633513Y55098D01*
X631773Y56839D01*
X629641Y58070D01*
X627263Y58707D01*
X624801D01*
X622423Y58070D01*
X620291Y56839D01*
X618738Y55286D01*
X597744D01*
X597482Y55741D01*
X595741Y57482D01*
X593609Y58713D01*
X591231Y59350D01*
X588769D01*
X586391Y58713D01*
X584259Y57482D01*
X583852Y57075D01*
X582679Y57561D01*
Y67677D01*
X583965Y68964D01*
X585181Y70783D01*
X585608Y72929D01*
Y82441D01*
X585741Y82518D01*
X587482Y84259D01*
X588713Y86391D01*
X589350Y88769D01*
Y91231D01*
X588713Y93609D01*
X587482Y95741D01*
X585741Y97482D01*
X583609Y98713D01*
X581231Y99350D01*
X578769D01*
X576391Y98713D01*
X574259Y97482D01*
X572518Y95741D01*
X571287Y93609D01*
X570650Y91231D01*
Y88769D01*
X571287Y86391D01*
X572518Y84259D01*
X574259Y82518D01*
X574392Y82441D01*
Y75252D01*
X573106Y73965D01*
X571890Y72146D01*
X571463Y70000D01*
Y41104D01*
X571890Y38958D01*
X573106Y37139D01*
X573834Y36411D01*
Y18788D01*
X524269D01*
X523783Y19962D01*
X523965Y20144D01*
X525181Y21964D01*
X525608Y24109D01*
Y80409D01*
X526878Y81157D01*
X528769Y80650D01*
X531231D01*
X533609Y81287D01*
X535741Y82518D01*
X537482Y84259D01*
X538713Y86391D01*
X539350Y88769D01*
Y91231D01*
X538713Y93609D01*
X537482Y95741D01*
X535741Y97482D01*
X533609Y98713D01*
X531231Y99350D01*
X528769D01*
X526391Y98713D01*
X525525Y98213D01*
X524633Y99164D01*
X525181Y99984D01*
X525608Y102130D01*
Y132441D01*
X525741Y132518D01*
X527482Y134259D01*
X528713Y136391D01*
X529350Y138769D01*
Y141231D01*
X528713Y143609D01*
X527482Y145741D01*
X525741Y147482D01*
X523609Y148713D01*
X521231Y149350D01*
X518769D01*
X516391Y148713D01*
X514259Y147482D01*
X512518Y145741D01*
X511287Y143609D01*
X510650Y141231D01*
Y138769D01*
X511287Y136391D01*
X512518Y134259D01*
X514259Y132518D01*
X514392Y132441D01*
Y104809D01*
X363122D01*
X359310Y108620D01*
X359350Y108769D01*
Y111231D01*
X358713Y113609D01*
X357482Y115741D01*
X355741Y117482D01*
X353609Y118713D01*
X352089Y119120D01*
X351709Y120537D01*
X355564Y124392D01*
X372441D01*
X372518Y124259D01*
X374259Y122518D01*
X376391Y121287D01*
X378769Y120650D01*
X381231D01*
X383609Y121287D01*
X385741Y122518D01*
X387482Y124259D01*
X388713Y126391D01*
X389350Y128769D01*
Y131231D01*
X388713Y133609D01*
X387482Y135741D01*
X385741Y137482D01*
X383609Y138713D01*
X381231Y139350D01*
X378769D01*
X376391Y138713D01*
X374259Y137482D01*
X372518Y135741D01*
X372441Y135608D01*
X356379D01*
X355370Y136878D01*
X355608Y138072D01*
Y144392D01*
X440409D01*
X441157Y143122D01*
X440650Y141231D01*
Y138769D01*
X441287Y136391D01*
X442518Y134259D01*
X444259Y132518D01*
X446391Y131287D01*
X448769Y130650D01*
X451231D01*
X453609Y131287D01*
X455741Y132518D01*
X457482Y134259D01*
X458713Y136391D01*
X459350Y138769D01*
Y141231D01*
X458713Y143609D01*
X457482Y145741D01*
X455741Y147482D01*
X455498Y147622D01*
X455181Y149217D01*
X453965Y151036D01*
X451036Y153965D01*
X449217Y155181D01*
X447071Y155608D01*
D02*
G37*
G36*
X298729Y108729D02*
X291136D01*
X291715Y106568D01*
X292885Y104540D01*
X294540Y102885D01*
X296568Y101715D01*
X298729Y101136D01*
Y108729D01*
D02*
G37*
G36*
X86773Y103973D02*
X68273D01*
Y85473D01*
X86773D01*
Y103973D01*
D02*
G37*
G36*
X681368Y73090D02*
X681270D01*
Y63970D01*
X690390D01*
Y64068D01*
X689682Y66710D01*
X688314Y69080D01*
X686380Y71014D01*
X684010Y72382D01*
X681368Y73090D01*
D02*
G37*
G36*
X678730D02*
X678632D01*
X675990Y72382D01*
X673620Y71014D01*
X671686Y69080D01*
X670318Y66710D01*
X669610Y64068D01*
Y63970D01*
X678730D01*
Y73090D01*
D02*
G37*
G36*
X53341Y78573D02*
X50905D01*
X48553Y77943D01*
X46443Y76725D01*
X44721Y75003D01*
X43503Y72893D01*
X42873Y70541D01*
Y68105D01*
X43503Y65753D01*
X44721Y63643D01*
X46443Y61921D01*
X48553Y60703D01*
X50905Y60073D01*
X53341D01*
X55693Y60703D01*
X57803Y61921D01*
X59525Y63643D01*
X60743Y65753D01*
X61373Y68105D01*
Y70541D01*
X60743Y72893D01*
X59525Y75003D01*
X57803Y76725D01*
X55693Y77943D01*
X53341Y78573D01*
D02*
G37*
G36*
X690390Y61430D02*
X681270D01*
Y52310D01*
X681368D01*
X684010Y53018D01*
X686380Y54386D01*
X688314Y56320D01*
X689682Y58690D01*
X690390Y61332D01*
Y61430D01*
D02*
G37*
G36*
X678730D02*
X669610D01*
Y61332D01*
X670318Y58690D01*
X671686Y56320D01*
X673620Y54386D01*
X675990Y53018D01*
X678632Y52310D01*
X678730D01*
Y61430D01*
D02*
G37*
G36*
X78741Y53173D02*
X76305D01*
X73953Y52543D01*
X71843Y51325D01*
X70121Y49603D01*
X68903Y47493D01*
X68273Y45141D01*
Y42705D01*
X68903Y40353D01*
X70121Y38243D01*
X71843Y36521D01*
X73953Y35303D01*
X76305Y34673D01*
X78741D01*
X81093Y35303D01*
X83203Y36521D01*
X84925Y38243D01*
X86143Y40353D01*
X86773Y42705D01*
Y45141D01*
X86143Y47493D01*
X84925Y49603D01*
X83203Y51325D01*
X81093Y52543D01*
X78741Y53173D01*
D02*
G37*
G36*
X690850Y48150D02*
X669150D01*
Y26450D01*
X690850D01*
Y48150D01*
D02*
G37*
%LPD*%
D24*
X52123Y69323D02*
D03*
X77523Y43923D02*
D03*
D25*
Y94723D02*
D03*
D26*
X680000Y187300D02*
D03*
X610000D02*
D03*
X538181Y187300D02*
D03*
X470000Y187300D02*
D03*
X400000D02*
D03*
X330000D02*
D03*
X260000D02*
D03*
X190000D02*
D03*
X120000D02*
D03*
X50000D02*
D03*
D27*
X680000Y212700D02*
D03*
X610000D02*
D03*
X538181Y212700D02*
D03*
X470000Y212700D02*
D03*
X400000D02*
D03*
X330000D02*
D03*
X260000D02*
D03*
X190000D02*
D03*
X120000D02*
D03*
X50000D02*
D03*
D28*
X680000Y62700D02*
D03*
D29*
Y37300D02*
D03*
D31*
X300000Y230000D02*
X300000Y230000D01*
X300000Y110000D02*
Y230000D01*
X299999Y109999D02*
X300000Y110000D01*
X330150Y118222D02*
X350000Y138072D01*
X312699Y97301D02*
X330150Y114752D01*
Y118222D01*
X331164Y69850D02*
X430000D01*
X319464Y58150D02*
X331164Y69850D01*
X520000Y102130D02*
Y140000D01*
X517071Y99201D02*
X520000Y102130D01*
X360799Y99201D02*
X517071D01*
X350000Y110000D02*
X360799Y99201D01*
X347666Y43923D02*
X355593Y51850D01*
X438640D02*
X446790Y60000D01*
X355593Y51850D02*
X438640D01*
X75742Y129250D02*
X76493Y130000D01*
X159446D01*
X200000Y89446D01*
X353242Y130000D02*
X380000D01*
X338150Y105221D02*
Y114908D01*
X320000Y87071D02*
X338150Y105221D01*
Y114908D02*
X353242Y130000D01*
X350000Y138072D02*
Y147071D01*
X470000Y70000D02*
X480000D01*
X460000Y60000D02*
X470000Y70000D01*
X446790Y60000D02*
X460000D01*
X210779Y58150D02*
X319464D01*
X460000Y40000D02*
X470000Y50000D01*
X410000Y40000D02*
X460000D01*
X200000Y68929D02*
Y89446D01*
Y68929D02*
X210779Y58150D01*
X590321Y49679D02*
X625710D01*
X590000Y50000D02*
X590321Y49679D01*
X625710D02*
X626032Y49357D01*
X579441Y13181D02*
X581938Y10684D01*
X625274D01*
X577071Y41104D02*
X579441Y38734D01*
X577071Y41104D02*
Y70000D01*
X580000Y72929D01*
Y90000D01*
X579441Y13181D02*
Y38734D01*
X133923Y43923D02*
X347666D01*
X390000Y10000D02*
X404779Y24779D01*
X504908D01*
X280000Y70000D02*
X320000D01*
X377349Y12192D02*
X379541Y10000D01*
X363499Y13499D02*
X364806Y12192D01*
X377349D01*
X379541Y10000D02*
X390000D01*
X508507Y21181D02*
X517071D01*
X504908Y24779D02*
X508507Y21181D01*
X520000Y24109D02*
Y87071D01*
X517071Y21181D02*
X520000Y24109D01*
Y87071D02*
X522929Y90000D01*
X530000D01*
X320000Y70000D02*
Y87071D01*
X350000Y147071D02*
X352929Y150000D01*
X447071D01*
X450000Y140000D02*
Y147071D01*
X447071Y150000D02*
X450000Y147071D01*
X500252Y13181D02*
X579441D01*
X500000Y12929D02*
X500252Y13181D01*
D32*
X299999Y109999D02*
D03*
X312699Y97301D02*
D03*
X430000Y69850D02*
D03*
X75742Y129250D02*
D03*
X350000Y110000D02*
D03*
X470000Y50000D02*
D03*
X626032Y49357D02*
D03*
X625274Y10684D02*
D03*
X590000Y50000D02*
D03*
X410000Y40000D02*
D03*
X480000Y70000D02*
D03*
X280000D02*
D03*
X133923Y43923D02*
D03*
X530000Y90000D02*
D03*
X363499Y13499D02*
D03*
X300000Y230000D02*
D03*
X380000Y130000D02*
D03*
X520000Y140000D02*
D03*
X450000D02*
D03*
X580000Y90000D02*
D03*
X500000Y12929D02*
D03*
M02*
