G04*
G04 #@! TF.GenerationSoftware,Altium Limited,Altium Designer,21.3.2 (30)*
G04*
G04 Layer_Color=128*
%FSLAX44Y44*%
%MOMM*%
G71*
G04*
G04 #@! TF.SameCoordinates,17D3A228-CD5A-42E2-9B72-4466C132A87E*
G04*
G04*
G04 #@! TF.FilePolarity,Positive*
G04*
G01*
G75*
%ADD36C,0.0508*%
D36*
X48373Y69323D02*
X55873D01*
X52123Y65573D02*
Y73073D01*
X73773Y43923D02*
X81273D01*
X77523Y40173D02*
Y47673D01*
X73773Y94723D02*
X81273D01*
X77523Y90973D02*
Y98473D01*
X675250Y187300D02*
X684750D01*
X680000Y182550D02*
Y192050D01*
X675250Y212700D02*
X684750D01*
X680000Y207950D02*
Y217450D01*
X605250Y187300D02*
X614750D01*
X610000Y182550D02*
Y192050D01*
X605250Y212700D02*
X614750D01*
X610000Y207950D02*
Y217450D01*
X533431Y187300D02*
X542931D01*
X538181Y182550D02*
Y192050D01*
X533431Y212700D02*
X542931D01*
X538181Y207950D02*
Y217450D01*
X465250Y187300D02*
X474750D01*
X470000Y182550D02*
Y192050D01*
X465250Y212700D02*
X474750D01*
X470000Y207950D02*
Y217450D01*
X395250Y187300D02*
X404750D01*
X400000Y182550D02*
Y192050D01*
X395250Y212700D02*
X404750D01*
X400000Y207950D02*
Y217450D01*
X325250Y187300D02*
X334750D01*
X330000Y182550D02*
Y192050D01*
X325250Y212700D02*
X334750D01*
X330000Y207950D02*
Y217450D01*
X255250Y187300D02*
X264750D01*
X260000Y182550D02*
Y192050D01*
X255250Y212700D02*
X264750D01*
X260000Y207950D02*
Y217450D01*
X185250Y187300D02*
X194750D01*
X190000Y182550D02*
Y192050D01*
X185250Y212700D02*
X194750D01*
X190000Y207950D02*
Y217450D01*
X115250Y187300D02*
X124750D01*
X120000Y182550D02*
Y192050D01*
X115250Y212700D02*
X124750D01*
X120000Y207950D02*
Y217450D01*
X45250Y187300D02*
X54750D01*
X50000Y182550D02*
Y192050D01*
X45250Y212700D02*
X54750D01*
X50000Y207950D02*
Y217450D01*
X674900Y62700D02*
X685100D01*
X680000Y57600D02*
Y67800D01*
X674900Y37300D02*
X685100D01*
X680000Y32200D02*
Y42400D01*
X296443Y109999D02*
X303555D01*
X299999Y106443D02*
Y113555D01*
X309143Y97301D02*
X316255D01*
X312699Y93745D02*
Y100857D01*
X426444Y69850D02*
X433556D01*
X430000Y66294D02*
Y73406D01*
X72186Y129250D02*
X79298D01*
X75742Y125694D02*
Y132806D01*
X346444Y110000D02*
X353556D01*
X350000Y106444D02*
Y113556D01*
X466444Y50000D02*
X473556D01*
X470000Y46444D02*
Y53556D01*
X622476Y49357D02*
X629588D01*
X626032Y45801D02*
Y52913D01*
X621718Y10684D02*
X628830D01*
X625274Y7128D02*
Y14240D01*
X586444Y50000D02*
X593556D01*
X590000Y46444D02*
Y53556D01*
X406444Y40000D02*
X413556D01*
X410000Y36444D02*
Y43556D01*
X476444Y70000D02*
X483556D01*
X480000Y66444D02*
Y73556D01*
X276444Y70000D02*
X283556D01*
X280000Y66444D02*
Y73556D01*
X130367Y43923D02*
X137479D01*
X133923Y40367D02*
Y47479D01*
X526444Y90000D02*
X533556D01*
X530000Y86444D02*
Y93556D01*
X359943Y13499D02*
X367055D01*
X363499Y9943D02*
Y17055D01*
X296444Y230000D02*
X303556D01*
X300000Y226444D02*
Y233556D01*
X376444Y130000D02*
X383556D01*
X380000Y126444D02*
Y133556D01*
X516444Y140000D02*
X523556D01*
X520000Y136444D02*
Y143556D01*
X446444Y140000D02*
X453556D01*
X450000Y136444D02*
Y143556D01*
X576444Y90000D02*
X583556D01*
X580000Y86444D02*
Y93556D01*
X496444Y12929D02*
X503556D01*
X500000Y9373D02*
Y16485D01*
M02*
