G04*
G04 #@! TF.GenerationSoftware,Altium Limited,Altium Designer,21.3.2 (30)*
G04*
G04 Layer_Color=16711935*
%FSLAX44Y44*%
%MOMM*%
G71*
G04*
G04 #@! TF.SameCoordinates,17D3A228-CD5A-42E2-9B72-4466C132A87E*
G04*
G04*
G04 #@! TF.FilePolarity,Positive*
G04*
G01*
G75*
%ADD12C,0.2000*%
G36*
X525676Y49991D02*
X525750D01*
X525843Y49982D01*
X525945Y49972D01*
X526046Y49963D01*
X526277Y49926D01*
X526527Y49871D01*
X526767Y49797D01*
X526999Y49695D01*
X527008D01*
X527026Y49676D01*
X527054Y49658D01*
X527091Y49640D01*
X527193Y49566D01*
X527313Y49464D01*
X527452Y49334D01*
X527581Y49187D01*
X527710Y49002D01*
X527812Y48798D01*
Y48789D01*
X527821Y48770D01*
X527831Y48733D01*
X527849Y48687D01*
X527868Y48632D01*
X527886Y48558D01*
X527914Y48475D01*
X527932Y48373D01*
X527951Y48262D01*
X527979Y48142D01*
X527997Y48012D01*
X528016Y47874D01*
X528034Y47716D01*
X528043Y47550D01*
X528053Y47374D01*
Y47189D01*
Y43491D01*
X527202D01*
Y47189D01*
Y47199D01*
Y47226D01*
Y47273D01*
Y47328D01*
X527193Y47393D01*
Y47476D01*
X527183Y47652D01*
X527165Y47855D01*
X527137Y48059D01*
X527100Y48253D01*
X527082Y48336D01*
X527054Y48419D01*
X527045Y48438D01*
X527026Y48484D01*
X526980Y48548D01*
X526925Y48641D01*
X526860Y48733D01*
X526767Y48835D01*
X526656Y48937D01*
X526527Y49020D01*
X526508Y49029D01*
X526462Y49057D01*
X526379Y49085D01*
X526268Y49122D01*
X526139Y49168D01*
X525972Y49196D01*
X525797Y49223D01*
X525602Y49233D01*
X525510D01*
X525454Y49223D01*
X525371D01*
X525288Y49214D01*
X525085Y49177D01*
X524863Y49131D01*
X524650Y49057D01*
X524447Y48955D01*
X524354Y48891D01*
X524271Y48817D01*
X524262Y48807D01*
X524253Y48798D01*
X524234Y48770D01*
X524206Y48733D01*
X524179Y48678D01*
X524142Y48622D01*
X524105Y48539D01*
X524068Y48456D01*
X524031Y48354D01*
X524003Y48234D01*
X523966Y48095D01*
X523938Y47948D01*
X523910Y47781D01*
X523892Y47606D01*
X523874Y47402D01*
Y47189D01*
Y43491D01*
X523023D01*
Y47189D01*
Y47199D01*
Y47236D01*
Y47282D01*
Y47347D01*
X523032Y47430D01*
Y47522D01*
X523041Y47633D01*
X523051Y47744D01*
X523078Y47994D01*
X523115Y48253D01*
X523171Y48502D01*
X523208Y48622D01*
X523245Y48733D01*
Y48743D01*
X523254Y48761D01*
X523273Y48789D01*
X523291Y48826D01*
X523347Y48928D01*
X523430Y49057D01*
X523541Y49205D01*
X523670Y49353D01*
X523837Y49510D01*
X524040Y49649D01*
X524049D01*
X524068Y49667D01*
X524095Y49676D01*
X524142Y49704D01*
X524197Y49732D01*
X524271Y49760D01*
X524345Y49787D01*
X524437Y49824D01*
X524539Y49861D01*
X524650Y49889D01*
X524770Y49917D01*
X524909Y49945D01*
X525048Y49963D01*
X525196Y49982D01*
X525528Y50000D01*
X525612D01*
X525676Y49991D01*
D02*
G37*
G36*
X519759Y44887D02*
X519768Y44896D01*
X519815Y44934D01*
X519870Y44989D01*
X519963Y45054D01*
X520064Y45137D01*
X520194Y45229D01*
X520342Y45331D01*
X520508Y45433D01*
X520517D01*
X520527Y45442D01*
X520582Y45479D01*
X520675Y45525D01*
X520785Y45581D01*
X520915Y45645D01*
X521054Y45710D01*
X521192Y45775D01*
X521331Y45830D01*
Y45072D01*
X521322D01*
X521303Y45054D01*
X521266Y45044D01*
X521220Y45017D01*
X521165Y44989D01*
X521100Y44952D01*
X520943Y44859D01*
X520758Y44758D01*
X520573Y44628D01*
X520379Y44481D01*
X520185Y44323D01*
X520175Y44314D01*
X520166Y44305D01*
X520138Y44277D01*
X520101Y44249D01*
X520018Y44157D01*
X519907Y44046D01*
X519796Y43917D01*
X519676Y43769D01*
X519574Y43621D01*
X519482Y43463D01*
X518973D01*
Y49889D01*
X519759D01*
Y44887D01*
D02*
G37*
G36*
X82299Y66355D02*
X82290Y66281D01*
Y66198D01*
X82281Y66004D01*
X82253Y65800D01*
X82226Y65578D01*
X82179Y65375D01*
X82151Y65273D01*
X82124Y65190D01*
Y65181D01*
X82114Y65172D01*
X82087Y65116D01*
X82050Y65033D01*
X81985Y64931D01*
X81902Y64820D01*
X81791Y64700D01*
X81662Y64589D01*
X81514Y64478D01*
X81504D01*
X81495Y64469D01*
X81440Y64432D01*
X81347Y64395D01*
X81227Y64340D01*
X81088Y64293D01*
X80922Y64247D01*
X80746Y64219D01*
X80552Y64210D01*
X80543D01*
X80524D01*
X80487D01*
X80441Y64219D01*
X80376D01*
X80312Y64229D01*
X80154Y64266D01*
X79970Y64321D01*
X79775Y64395D01*
X79581Y64506D01*
X79489Y64580D01*
X79396Y64654D01*
X79387Y64663D01*
X79378Y64672D01*
X79350Y64700D01*
X79322Y64737D01*
X79285Y64783D01*
X79248Y64839D01*
X79202Y64913D01*
X79147Y64987D01*
X79100Y65079D01*
X79054Y65181D01*
X78999Y65292D01*
X78952Y65412D01*
X78916Y65551D01*
X78869Y65689D01*
X78842Y65847D01*
X78814Y66013D01*
X78805Y65995D01*
X78786Y65958D01*
X78749Y65902D01*
X78712Y65828D01*
X78611Y65662D01*
X78546Y65578D01*
X78490Y65504D01*
X78472Y65486D01*
X78425Y65440D01*
X78352Y65366D01*
X78259Y65273D01*
X78130Y65172D01*
X77991Y65051D01*
X77825Y64931D01*
X77640Y64802D01*
X75901Y63702D01*
Y64756D01*
X77233Y65597D01*
X77242D01*
X77261Y65616D01*
X77288Y65634D01*
X77325Y65662D01*
X77427Y65726D01*
X77557Y65810D01*
X77695Y65911D01*
X77843Y66013D01*
X77982Y66115D01*
X78111Y66207D01*
X78120Y66216D01*
X78157Y66244D01*
X78213Y66290D01*
X78278Y66355D01*
X78416Y66494D01*
X78481Y66568D01*
X78537Y66642D01*
X78546Y66651D01*
X78555Y66670D01*
X78573Y66706D01*
X78601Y66762D01*
X78629Y66817D01*
X78657Y66882D01*
X78703Y67030D01*
Y67039D01*
X78712Y67058D01*
Y67095D01*
X78721Y67141D01*
X78731Y67206D01*
Y67280D01*
X78740Y67381D01*
Y68472D01*
X75901D01*
Y69323D01*
X82299D01*
Y66355D01*
D02*
G37*
G36*
X80718Y62592D02*
X80737Y62574D01*
X80746Y62537D01*
X80774Y62491D01*
X80802Y62435D01*
X80839Y62370D01*
X80931Y62213D01*
X81033Y62028D01*
X81162Y61843D01*
X81310Y61649D01*
X81467Y61455D01*
X81477Y61446D01*
X81486Y61437D01*
X81514Y61409D01*
X81541Y61372D01*
X81634Y61288D01*
X81745Y61178D01*
X81874Y61067D01*
X82022Y60946D01*
X82170Y60845D01*
X82327Y60752D01*
Y60244D01*
X75901D01*
Y61030D01*
X80903D01*
X80894Y61039D01*
X80857Y61085D01*
X80802Y61141D01*
X80737Y61233D01*
X80654Y61335D01*
X80561Y61464D01*
X80460Y61612D01*
X80358Y61778D01*
Y61788D01*
X80349Y61797D01*
X80312Y61852D01*
X80265Y61945D01*
X80210Y62056D01*
X80145Y62185D01*
X80080Y62324D01*
X80016Y62463D01*
X79960Y62601D01*
X80718D01*
Y62592D01*
D02*
G37*
G36*
X77695Y57433D02*
X77686D01*
X77667Y57424D01*
X77630Y57415D01*
X77584Y57405D01*
X77529Y57396D01*
X77464Y57378D01*
X77325Y57331D01*
X77159Y57267D01*
X77002Y57183D01*
X76854Y57091D01*
X76724Y56980D01*
X76715Y56962D01*
X76678Y56925D01*
X76632Y56851D01*
X76586Y56758D01*
X76530Y56647D01*
X76484Y56508D01*
X76447Y56351D01*
X76438Y56185D01*
Y56129D01*
X76447Y56093D01*
X76456Y55991D01*
X76484Y55861D01*
X76530Y55713D01*
X76595Y55556D01*
X76687Y55399D01*
X76817Y55251D01*
X76835Y55233D01*
X76891Y55186D01*
X76974Y55131D01*
X77085Y55057D01*
X77224Y54983D01*
X77381Y54928D01*
X77566Y54881D01*
X77769Y54863D01*
X77778D01*
X77797D01*
X77825D01*
X77862Y54872D01*
X77963Y54881D01*
X78084Y54909D01*
X78231Y54946D01*
X78379Y55011D01*
X78527Y55103D01*
X78666Y55223D01*
X78684Y55242D01*
X78721Y55288D01*
X78777Y55362D01*
X78842Y55464D01*
X78906Y55593D01*
X78962Y55750D01*
X78999Y55926D01*
X79017Y56120D01*
Y56203D01*
X79008Y56268D01*
X78999Y56351D01*
X78980Y56444D01*
X78962Y56555D01*
X78934Y56675D01*
X79627Y56582D01*
Y56536D01*
X79618Y56499D01*
Y56379D01*
X79637Y56277D01*
X79655Y56157D01*
X79683Y56019D01*
X79729Y55861D01*
X79794Y55713D01*
X79877Y55556D01*
Y55547D01*
X79886Y55538D01*
X79923Y55491D01*
X79988Y55427D01*
X80071Y55353D01*
X80191Y55279D01*
X80330Y55214D01*
X80487Y55168D01*
X80580Y55149D01*
X80681D01*
X80691D01*
X80700D01*
X80755D01*
X80829Y55168D01*
X80931Y55186D01*
X81042Y55223D01*
X81162Y55270D01*
X81282Y55344D01*
X81393Y55445D01*
X81403Y55455D01*
X81440Y55501D01*
X81486Y55566D01*
X81541Y55649D01*
X81587Y55760D01*
X81634Y55889D01*
X81671Y56037D01*
X81680Y56203D01*
Y56277D01*
X81662Y56361D01*
X81643Y56472D01*
X81606Y56592D01*
X81560Y56712D01*
X81486Y56841D01*
X81393Y56962D01*
X81384Y56971D01*
X81338Y57008D01*
X81273Y57063D01*
X81181Y57128D01*
X81060Y57193D01*
X80913Y57257D01*
X80737Y57313D01*
X80534Y57350D01*
X80672Y58136D01*
X80681D01*
X80709Y58127D01*
X80746Y58117D01*
X80802Y58108D01*
X80866Y58089D01*
X80940Y58062D01*
X81116Y58006D01*
X81319Y57914D01*
X81523Y57803D01*
X81717Y57664D01*
X81893Y57489D01*
X81902Y57479D01*
X81911Y57461D01*
X81930Y57433D01*
X81957Y57396D01*
X81994Y57350D01*
X82031Y57285D01*
X82068Y57221D01*
X82114Y57137D01*
X82189Y56952D01*
X82262Y56740D01*
X82309Y56490D01*
X82327Y56361D01*
Y56129D01*
X82318Y56028D01*
X82299Y55908D01*
X82272Y55760D01*
X82226Y55593D01*
X82170Y55427D01*
X82096Y55260D01*
Y55251D01*
X82087Y55242D01*
X82059Y55186D01*
X82004Y55103D01*
X81939Y55011D01*
X81846Y54900D01*
X81745Y54789D01*
X81624Y54678D01*
X81486Y54585D01*
X81467Y54576D01*
X81421Y54549D01*
X81338Y54511D01*
X81236Y54465D01*
X81116Y54419D01*
X80977Y54382D01*
X80820Y54354D01*
X80663Y54345D01*
X80645D01*
X80589D01*
X80515Y54354D01*
X80413Y54373D01*
X80293Y54401D01*
X80164Y54447D01*
X80034Y54502D01*
X79905Y54576D01*
X79886Y54585D01*
X79849Y54613D01*
X79785Y54669D01*
X79711Y54743D01*
X79627Y54835D01*
X79535Y54946D01*
X79452Y55075D01*
X79369Y55233D01*
Y55223D01*
X79359Y55205D01*
X79350Y55177D01*
X79341Y55140D01*
X79304Y55038D01*
X79248Y54909D01*
X79174Y54761D01*
X79082Y54613D01*
X78962Y54475D01*
X78823Y54345D01*
X78805Y54336D01*
X78749Y54299D01*
X78657Y54243D01*
X78537Y54188D01*
X78389Y54132D01*
X78213Y54077D01*
X78010Y54040D01*
X77788Y54031D01*
X77778D01*
X77751D01*
X77704D01*
X77649Y54040D01*
X77575Y54049D01*
X77492Y54068D01*
X77399Y54086D01*
X77298Y54105D01*
X77076Y54179D01*
X76955Y54234D01*
X76845Y54290D01*
X76724Y54364D01*
X76604Y54447D01*
X76484Y54539D01*
X76373Y54650D01*
X76364Y54659D01*
X76345Y54678D01*
X76318Y54715D01*
X76281Y54761D01*
X76234Y54817D01*
X76188Y54891D01*
X76133Y54974D01*
X76086Y55075D01*
X76031Y55177D01*
X75975Y55297D01*
X75929Y55418D01*
X75883Y55556D01*
X75846Y55704D01*
X75818Y55861D01*
X75800Y56019D01*
X75791Y56194D01*
Y56277D01*
X75800Y56333D01*
X75809Y56407D01*
X75818Y56490D01*
X75837Y56582D01*
X75855Y56684D01*
X75911Y56906D01*
X76003Y57137D01*
X76059Y57257D01*
X76123Y57368D01*
X76207Y57479D01*
X76290Y57590D01*
X76299Y57600D01*
X76318Y57618D01*
X76345Y57646D01*
X76382Y57674D01*
X76428Y57720D01*
X76493Y57766D01*
X76558Y57821D01*
X76641Y57877D01*
X76734Y57932D01*
X76826Y57988D01*
X77048Y58089D01*
X77307Y58173D01*
X77446Y58200D01*
X77593Y58219D01*
X77695Y57433D01*
D02*
G37*
G36*
X686398Y197541D02*
X686389Y197374D01*
X686379Y197189D01*
X686361Y197005D01*
X686333Y196820D01*
X686305Y196662D01*
Y196653D01*
X686296Y196635D01*
Y196607D01*
X686278Y196570D01*
X686250Y196468D01*
X686204Y196339D01*
X686139Y196191D01*
X686056Y196034D01*
X685963Y195877D01*
X685843Y195729D01*
X685834Y195719D01*
X685825Y195710D01*
X685797Y195682D01*
X685769Y195645D01*
X685677Y195553D01*
X685547Y195442D01*
X685390Y195322D01*
X685205Y195192D01*
X684993Y195072D01*
X684752Y194970D01*
X684743D01*
X684724Y194961D01*
X684687Y194943D01*
X684632Y194933D01*
X684567Y194906D01*
X684493Y194887D01*
X684410Y194869D01*
X684308Y194841D01*
X684207Y194813D01*
X684086Y194795D01*
X683828Y194749D01*
X683541Y194721D01*
X683227Y194712D01*
X683217D01*
X683199D01*
X683153D01*
X683106D01*
X683042Y194721D01*
X682968D01*
X682792Y194730D01*
X682589Y194758D01*
X682376Y194786D01*
X682154Y194832D01*
X681932Y194887D01*
X681923D01*
X681905Y194897D01*
X681877Y194906D01*
X681840Y194915D01*
X681738Y194952D01*
X681609Y195007D01*
X681461Y195063D01*
X681313Y195137D01*
X681156Y195229D01*
X681008Y195322D01*
X680989Y195331D01*
X680943Y195368D01*
X680878Y195424D01*
X680795Y195497D01*
X680703Y195581D01*
X680610Y195682D01*
X680508Y195784D01*
X680425Y195904D01*
X680416Y195923D01*
X680388Y195960D01*
X680351Y196024D01*
X680305Y196117D01*
X680249Y196228D01*
X680203Y196357D01*
X680148Y196505D01*
X680102Y196672D01*
Y196690D01*
X680092Y196718D01*
X680083Y196746D01*
X680074Y196838D01*
X680055Y196968D01*
X680037Y197115D01*
X680018Y197291D01*
X680009Y197485D01*
X680000Y197698D01*
Y200000D01*
X686398D01*
Y197541D01*
D02*
G37*
G36*
X684817Y193260D02*
X684835Y193242D01*
X684845Y193205D01*
X684872Y193158D01*
X684900Y193103D01*
X684937Y193038D01*
X685030Y192881D01*
X685131Y192696D01*
X685261Y192511D01*
X685409Y192317D01*
X685566Y192123D01*
X685575Y192114D01*
X685584Y192104D01*
X685612Y192077D01*
X685640Y192040D01*
X685732Y191956D01*
X685843Y191845D01*
X685973Y191735D01*
X686121Y191614D01*
X686268Y191513D01*
X686426Y191420D01*
Y190912D01*
X680000D01*
Y191698D01*
X685002D01*
X684993Y191707D01*
X684956Y191753D01*
X684900Y191808D01*
X684835Y191901D01*
X684752Y192003D01*
X684660Y192132D01*
X684558Y192280D01*
X684456Y192446D01*
Y192456D01*
X684447Y192465D01*
X684410Y192520D01*
X684364Y192613D01*
X684308Y192724D01*
X684244Y192853D01*
X684179Y192992D01*
X684114Y193131D01*
X684059Y193269D01*
X684817D01*
Y193260D01*
D02*
G37*
G36*
X616398Y197541D02*
X616389Y197374D01*
X616379Y197189D01*
X616361Y197005D01*
X616333Y196820D01*
X616305Y196662D01*
Y196653D01*
X616296Y196635D01*
Y196607D01*
X616278Y196570D01*
X616250Y196468D01*
X616204Y196339D01*
X616139Y196191D01*
X616056Y196034D01*
X615963Y195877D01*
X615843Y195729D01*
X615834Y195719D01*
X615825Y195710D01*
X615797Y195682D01*
X615769Y195645D01*
X615677Y195553D01*
X615547Y195442D01*
X615390Y195322D01*
X615205Y195192D01*
X614992Y195072D01*
X614752Y194970D01*
X614743D01*
X614724Y194961D01*
X614687Y194943D01*
X614632Y194933D01*
X614567Y194906D01*
X614493Y194887D01*
X614410Y194869D01*
X614308Y194841D01*
X614207Y194813D01*
X614086Y194795D01*
X613828Y194749D01*
X613541Y194721D01*
X613227Y194712D01*
X613217D01*
X613199D01*
X613153D01*
X613106D01*
X613042Y194721D01*
X612968D01*
X612792Y194730D01*
X612589Y194758D01*
X612376Y194786D01*
X612154Y194832D01*
X611932Y194887D01*
X611923D01*
X611904Y194897D01*
X611877Y194906D01*
X611840Y194915D01*
X611738Y194952D01*
X611609Y195007D01*
X611461Y195063D01*
X611313Y195137D01*
X611156Y195229D01*
X611008Y195322D01*
X610989Y195331D01*
X610943Y195368D01*
X610878Y195424D01*
X610795Y195497D01*
X610703Y195581D01*
X610610Y195682D01*
X610508Y195784D01*
X610425Y195904D01*
X610416Y195923D01*
X610388Y195960D01*
X610351Y196024D01*
X610305Y196117D01*
X610249Y196228D01*
X610203Y196357D01*
X610148Y196505D01*
X610102Y196672D01*
Y196690D01*
X610092Y196718D01*
X610083Y196746D01*
X610074Y196838D01*
X610055Y196968D01*
X610037Y197115D01*
X610018Y197291D01*
X610009Y197485D01*
X610000Y197698D01*
Y200000D01*
X616398D01*
Y197541D01*
D02*
G37*
G36*
X610176Y193972D02*
X610259Y193963D01*
X610351Y193944D01*
X610444Y193926D01*
X610545Y193889D01*
X610555D01*
X610564Y193880D01*
X610619Y193861D01*
X610703Y193824D01*
X610813Y193769D01*
X610943Y193695D01*
X611091Y193602D01*
X611239Y193500D01*
X611396Y193371D01*
X611405D01*
X611414Y193353D01*
X611470Y193306D01*
X611553Y193223D01*
X611673Y193103D01*
X611812Y192964D01*
X611978Y192789D01*
X612163Y192576D01*
X612357Y192345D01*
X612367Y192335D01*
X612394Y192299D01*
X612441Y192243D01*
X612496Y192178D01*
X612570Y192095D01*
X612653Y191993D01*
X612746Y191892D01*
X612848Y191772D01*
X613069Y191540D01*
X613291Y191309D01*
X613402Y191198D01*
X613513Y191097D01*
X613615Y191004D01*
X613717Y190930D01*
X613726D01*
X613735Y190912D01*
X613763Y190893D01*
X613800Y190875D01*
X613901Y190810D01*
X614022Y190736D01*
X614170Y190671D01*
X614327Y190607D01*
X614502Y190570D01*
X614669Y190551D01*
X614678D01*
X614687D01*
X614743Y190560D01*
X614835Y190570D01*
X614937Y190597D01*
X615066Y190634D01*
X615196Y190699D01*
X615325Y190782D01*
X615455Y190893D01*
X615473Y190912D01*
X615510Y190958D01*
X615556Y191023D01*
X615621Y191124D01*
X615677Y191254D01*
X615732Y191402D01*
X615769Y191577D01*
X615778Y191772D01*
Y191827D01*
X615769Y191864D01*
X615760Y191975D01*
X615732Y192104D01*
X615695Y192243D01*
X615630Y192400D01*
X615547Y192548D01*
X615436Y192687D01*
X615418Y192705D01*
X615372Y192742D01*
X615298Y192798D01*
X615187Y192853D01*
X615057Y192918D01*
X614891Y192973D01*
X614706Y193010D01*
X614493Y193029D01*
X614576Y193833D01*
X614586D01*
X614613Y193824D01*
X614660D01*
X614724Y193815D01*
X614798Y193796D01*
X614882Y193778D01*
X614983Y193750D01*
X615085Y193722D01*
X615307Y193648D01*
X615529Y193537D01*
X615640Y193473D01*
X615751Y193389D01*
X615852Y193306D01*
X615945Y193214D01*
X615954Y193205D01*
X615963Y193186D01*
X615991Y193158D01*
X616019Y193112D01*
X616056Y193057D01*
X616093Y192992D01*
X616139Y192918D01*
X616185Y192826D01*
X616231Y192724D01*
X616278Y192613D01*
X616315Y192493D01*
X616352Y192363D01*
X616379Y192225D01*
X616407Y192077D01*
X616416Y191919D01*
X616426Y191753D01*
Y191661D01*
X616416Y191596D01*
X616407Y191522D01*
X616398Y191429D01*
X616379Y191328D01*
X616361Y191226D01*
X616296Y190986D01*
X616204Y190745D01*
X616148Y190625D01*
X616083Y190505D01*
X616000Y190394D01*
X615908Y190292D01*
X615899Y190283D01*
X615889Y190264D01*
X615852Y190246D01*
X615815Y190209D01*
X615769Y190163D01*
X615704Y190117D01*
X615640Y190070D01*
X615556Y190015D01*
X615381Y189922D01*
X615159Y189830D01*
X615048Y189793D01*
X614919Y189774D01*
X614789Y189756D01*
X614650Y189747D01*
X614632D01*
X614586D01*
X614512Y189756D01*
X614410Y189765D01*
X614299Y189784D01*
X614170Y189821D01*
X614031Y189858D01*
X613892Y189913D01*
X613874Y189922D01*
X613828Y189941D01*
X613754Y189978D01*
X613652Y190033D01*
X613541Y190107D01*
X613402Y190200D01*
X613264Y190311D01*
X613106Y190440D01*
X613088Y190459D01*
X613032Y190505D01*
X612986Y190551D01*
X612940Y190597D01*
X612884Y190653D01*
X612811Y190727D01*
X612737Y190801D01*
X612653Y190893D01*
X612561Y190986D01*
X612459Y191097D01*
X612357Y191217D01*
X612237Y191346D01*
X612117Y191494D01*
X611988Y191642D01*
X611978Y191651D01*
X611960Y191670D01*
X611932Y191707D01*
X611895Y191753D01*
X611840Y191808D01*
X611784Y191873D01*
X611664Y192021D01*
X611525Y192178D01*
X611387Y192326D01*
X611267Y192456D01*
X611220Y192511D01*
X611174Y192557D01*
X611165Y192567D01*
X611137Y192594D01*
X611100Y192631D01*
X611045Y192678D01*
X610980Y192724D01*
X610915Y192779D01*
X610758Y192890D01*
Y189737D01*
X610000D01*
Y193981D01*
X610009D01*
X610046D01*
X610102D01*
X610176Y193972D01*
D02*
G37*
G36*
X544689Y197541D02*
X544680Y197374D01*
X544671Y197190D01*
X544652Y197005D01*
X544625Y196820D01*
X544597Y196663D01*
Y196653D01*
X544588Y196635D01*
Y196607D01*
X544569Y196570D01*
X544542Y196468D01*
X544495Y196339D01*
X544431Y196191D01*
X544347Y196034D01*
X544255Y195877D01*
X544135Y195729D01*
X544126Y195719D01*
X544116Y195710D01*
X544089Y195682D01*
X544061Y195646D01*
X543968Y195553D01*
X543839Y195442D01*
X543682Y195322D01*
X543497Y195192D01*
X543284Y195072D01*
X543044Y194970D01*
X543035D01*
X543016Y194961D01*
X542979Y194943D01*
X542924Y194933D01*
X542859Y194906D01*
X542785Y194887D01*
X542702Y194869D01*
X542600Y194841D01*
X542498Y194813D01*
X542378Y194795D01*
X542119Y194749D01*
X541833Y194721D01*
X541518Y194712D01*
X541509D01*
X541491D01*
X541444D01*
X541398D01*
X541333Y194721D01*
X541259D01*
X541084Y194730D01*
X540880Y194758D01*
X540668Y194786D01*
X540446Y194832D01*
X540224Y194887D01*
X540215D01*
X540196Y194897D01*
X540168Y194906D01*
X540131Y194915D01*
X540030Y194952D01*
X539900Y195007D01*
X539752Y195063D01*
X539604Y195137D01*
X539447Y195229D01*
X539299Y195322D01*
X539281Y195331D01*
X539235Y195368D01*
X539170Y195424D01*
X539087Y195497D01*
X538994Y195581D01*
X538902Y195682D01*
X538800Y195784D01*
X538717Y195904D01*
X538708Y195923D01*
X538680Y195960D01*
X538643Y196024D01*
X538597Y196117D01*
X538541Y196228D01*
X538495Y196357D01*
X538439Y196505D01*
X538393Y196672D01*
Y196690D01*
X538384Y196718D01*
X538375Y196746D01*
X538366Y196838D01*
X538347Y196968D01*
X538329Y197115D01*
X538310Y197291D01*
X538301Y197485D01*
X538292Y197698D01*
Y200000D01*
X544689D01*
Y197541D01*
D02*
G37*
G36*
X540085Y193075D02*
X540076D01*
X540057Y193066D01*
X540020Y193057D01*
X539974Y193047D01*
X539919Y193038D01*
X539854Y193020D01*
X539715Y192973D01*
X539549Y192909D01*
X539392Y192826D01*
X539244Y192733D01*
X539114Y192622D01*
X539105Y192604D01*
X539068Y192567D01*
X539022Y192493D01*
X538976Y192400D01*
X538920Y192289D01*
X538874Y192151D01*
X538837Y191993D01*
X538828Y191827D01*
Y191772D01*
X538837Y191735D01*
X538846Y191633D01*
X538874Y191503D01*
X538920Y191355D01*
X538985Y191198D01*
X539077Y191041D01*
X539207Y190893D01*
X539225Y190875D01*
X539281Y190828D01*
X539364Y190773D01*
X539475Y190699D01*
X539614Y190625D01*
X539771Y190570D01*
X539956Y190523D01*
X540159Y190505D01*
X540168D01*
X540187D01*
X540215D01*
X540252Y190514D01*
X540353Y190523D01*
X540474Y190551D01*
X540621Y190588D01*
X540769Y190653D01*
X540917Y190745D01*
X541056Y190865D01*
X541074Y190884D01*
X541111Y190930D01*
X541167Y191004D01*
X541232Y191106D01*
X541296Y191235D01*
X541352Y191392D01*
X541389Y191568D01*
X541407Y191762D01*
Y191845D01*
X541398Y191910D01*
X541389Y191993D01*
X541370Y192086D01*
X541352Y192197D01*
X541324Y192317D01*
X542018Y192225D01*
Y192178D01*
X542008Y192141D01*
Y192021D01*
X542027Y191919D01*
X542045Y191799D01*
X542073Y191661D01*
X542119Y191503D01*
X542184Y191355D01*
X542267Y191198D01*
Y191189D01*
X542276Y191180D01*
X542313Y191134D01*
X542378Y191069D01*
X542461Y190995D01*
X542581Y190921D01*
X542720Y190856D01*
X542877Y190810D01*
X542970Y190791D01*
X543072D01*
X543081D01*
X543090D01*
X543145D01*
X543219Y190810D01*
X543321Y190828D01*
X543432Y190865D01*
X543552Y190912D01*
X543672Y190986D01*
X543783Y191087D01*
X543793Y191097D01*
X543830Y191143D01*
X543876Y191208D01*
X543931Y191291D01*
X543978Y191402D01*
X544024Y191531D01*
X544061Y191679D01*
X544070Y191845D01*
Y191919D01*
X544052Y192003D01*
X544033Y192114D01*
X543996Y192234D01*
X543950Y192354D01*
X543876Y192484D01*
X543783Y192604D01*
X543774Y192613D01*
X543728Y192650D01*
X543663Y192705D01*
X543571Y192770D01*
X543451Y192835D01*
X543303Y192899D01*
X543127Y192955D01*
X542924Y192992D01*
X543062Y193778D01*
X543072D01*
X543099Y193769D01*
X543136Y193759D01*
X543192Y193750D01*
X543256Y193732D01*
X543330Y193704D01*
X543506Y193648D01*
X543709Y193556D01*
X543913Y193445D01*
X544107Y193306D01*
X544283Y193131D01*
X544292Y193121D01*
X544301Y193103D01*
X544320Y193075D01*
X544347Y193038D01*
X544384Y192992D01*
X544421Y192927D01*
X544458Y192862D01*
X544505Y192779D01*
X544579Y192594D01*
X544652Y192382D01*
X544699Y192132D01*
X544717Y192003D01*
Y191772D01*
X544708Y191670D01*
X544689Y191550D01*
X544662Y191402D01*
X544616Y191235D01*
X544560Y191069D01*
X544486Y190903D01*
Y190893D01*
X544477Y190884D01*
X544449Y190828D01*
X544394Y190745D01*
X544329Y190653D01*
X544236Y190542D01*
X544135Y190431D01*
X544015Y190320D01*
X543876Y190228D01*
X543857Y190218D01*
X543811Y190191D01*
X543728Y190154D01*
X543626Y190107D01*
X543506Y190061D01*
X543367Y190024D01*
X543210Y189996D01*
X543053Y189987D01*
X543035D01*
X542979D01*
X542905Y189996D01*
X542803Y190015D01*
X542683Y190043D01*
X542554Y190089D01*
X542424Y190144D01*
X542295Y190218D01*
X542276Y190228D01*
X542239Y190255D01*
X542175Y190311D01*
X542101Y190385D01*
X542018Y190477D01*
X541925Y190588D01*
X541842Y190718D01*
X541759Y190875D01*
Y190865D01*
X541749Y190847D01*
X541740Y190819D01*
X541731Y190782D01*
X541694Y190681D01*
X541638Y190551D01*
X541564Y190403D01*
X541472Y190255D01*
X541352Y190117D01*
X541213Y189987D01*
X541195Y189978D01*
X541139Y189941D01*
X541047Y189885D01*
X540927Y189830D01*
X540779Y189774D01*
X540603Y189719D01*
X540400Y189682D01*
X540178Y189673D01*
X540168D01*
X540141D01*
X540094D01*
X540039Y189682D01*
X539965Y189691D01*
X539882Y189710D01*
X539789Y189728D01*
X539688Y189747D01*
X539466Y189821D01*
X539346Y189876D01*
X539235Y189932D01*
X539114Y190006D01*
X538994Y190089D01*
X538874Y190181D01*
X538763Y190292D01*
X538754Y190301D01*
X538735Y190320D01*
X538708Y190357D01*
X538671Y190403D01*
X538624Y190459D01*
X538578Y190533D01*
X538523Y190616D01*
X538476Y190718D01*
X538421Y190819D01*
X538366Y190939D01*
X538319Y191060D01*
X538273Y191198D01*
X538236Y191346D01*
X538208Y191503D01*
X538190Y191661D01*
X538181Y191836D01*
Y191919D01*
X538190Y191975D01*
X538199Y192049D01*
X538208Y192132D01*
X538227Y192225D01*
X538245Y192326D01*
X538301Y192548D01*
X538393Y192779D01*
X538449Y192899D01*
X538513Y193011D01*
X538597Y193121D01*
X538680Y193232D01*
X538689Y193242D01*
X538708Y193260D01*
X538735Y193288D01*
X538772Y193316D01*
X538819Y193362D01*
X538883Y193408D01*
X538948Y193463D01*
X539031Y193519D01*
X539124Y193574D01*
X539216Y193630D01*
X539438Y193732D01*
X539697Y193815D01*
X539836Y193843D01*
X539983Y193861D01*
X540085Y193075D01*
D02*
G37*
G36*
X476398Y197541D02*
X476389Y197374D01*
X476379Y197189D01*
X476361Y197005D01*
X476333Y196820D01*
X476305Y196662D01*
Y196653D01*
X476296Y196635D01*
Y196607D01*
X476278Y196570D01*
X476250Y196468D01*
X476204Y196339D01*
X476139Y196191D01*
X476056Y196034D01*
X475963Y195877D01*
X475843Y195729D01*
X475834Y195719D01*
X475825Y195710D01*
X475797Y195682D01*
X475769Y195645D01*
X475677Y195553D01*
X475547Y195442D01*
X475390Y195322D01*
X475205Y195192D01*
X474992Y195072D01*
X474752Y194970D01*
X474743D01*
X474724Y194961D01*
X474687Y194943D01*
X474632Y194933D01*
X474567Y194906D01*
X474493Y194887D01*
X474410Y194869D01*
X474308Y194841D01*
X474207Y194813D01*
X474086Y194795D01*
X473828Y194749D01*
X473541Y194721D01*
X473227Y194712D01*
X473217D01*
X473199D01*
X473153D01*
X473106D01*
X473042Y194721D01*
X472968D01*
X472792Y194730D01*
X472589Y194758D01*
X472376Y194786D01*
X472154Y194832D01*
X471932Y194887D01*
X471923D01*
X471904Y194897D01*
X471877Y194906D01*
X471840Y194915D01*
X471738Y194952D01*
X471609Y195007D01*
X471461Y195063D01*
X471313Y195137D01*
X471156Y195229D01*
X471008Y195322D01*
X470989Y195331D01*
X470943Y195368D01*
X470878Y195424D01*
X470795Y195497D01*
X470703Y195581D01*
X470610Y195682D01*
X470508Y195784D01*
X470425Y195904D01*
X470416Y195923D01*
X470388Y195960D01*
X470351Y196024D01*
X470305Y196117D01*
X470249Y196228D01*
X470203Y196357D01*
X470148Y196505D01*
X470102Y196672D01*
Y196690D01*
X470092Y196718D01*
X470083Y196746D01*
X470074Y196838D01*
X470055Y196968D01*
X470037Y197115D01*
X470018Y197291D01*
X470009Y197485D01*
X470000Y197698D01*
Y200000D01*
X476398D01*
Y197541D01*
D02*
G37*
G36*
Y191208D02*
Y190570D01*
X472256D01*
Y189701D01*
X471535D01*
Y190570D01*
X470000D01*
Y191355D01*
X471535D01*
Y194138D01*
X472256D01*
X476398Y191208D01*
D02*
G37*
G36*
X406509Y197541D02*
X406499Y197374D01*
X406490Y197189D01*
X406472Y197005D01*
X406444Y196820D01*
X406416Y196662D01*
Y196653D01*
X406407Y196635D01*
Y196607D01*
X406389Y196570D01*
X406361Y196468D01*
X406315Y196339D01*
X406250Y196191D01*
X406167Y196034D01*
X406074Y195877D01*
X405954Y195729D01*
X405945Y195719D01*
X405936Y195710D01*
X405908Y195682D01*
X405880Y195645D01*
X405788Y195553D01*
X405658Y195442D01*
X405501Y195322D01*
X405316Y195192D01*
X405103Y195072D01*
X404863Y194970D01*
X404854D01*
X404835Y194961D01*
X404798Y194943D01*
X404743Y194933D01*
X404678Y194906D01*
X404604Y194887D01*
X404521Y194869D01*
X404419Y194841D01*
X404318Y194813D01*
X404197Y194795D01*
X403938Y194749D01*
X403652Y194721D01*
X403338Y194712D01*
X403328D01*
X403310D01*
X403264D01*
X403217D01*
X403153Y194721D01*
X403079D01*
X402903Y194730D01*
X402700Y194758D01*
X402487Y194786D01*
X402265Y194832D01*
X402043Y194887D01*
X402034D01*
X402015Y194897D01*
X401988Y194906D01*
X401951Y194915D01*
X401849Y194952D01*
X401720Y195007D01*
X401572Y195063D01*
X401424Y195137D01*
X401267Y195229D01*
X401119Y195322D01*
X401100Y195331D01*
X401054Y195368D01*
X400989Y195424D01*
X400906Y195497D01*
X400813Y195581D01*
X400721Y195682D01*
X400619Y195784D01*
X400536Y195904D01*
X400527Y195923D01*
X400499Y195960D01*
X400462Y196024D01*
X400416Y196117D01*
X400360Y196228D01*
X400314Y196357D01*
X400259Y196505D01*
X400213Y196672D01*
Y196690D01*
X400203Y196718D01*
X400194Y196746D01*
X400185Y196838D01*
X400166Y196968D01*
X400148Y197115D01*
X400129Y197291D01*
X400120Y197485D01*
X400111Y197698D01*
Y200000D01*
X406509D01*
Y197541D01*
D02*
G37*
G36*
X401849Y193047D02*
X401840D01*
X401821D01*
X401794Y193038D01*
X401747Y193029D01*
X401646Y193001D01*
X401507Y192964D01*
X401368Y192909D01*
X401211Y192835D01*
X401072Y192742D01*
X400943Y192631D01*
X400934Y192613D01*
X400897Y192576D01*
X400850Y192502D01*
X400795Y192400D01*
X400740Y192289D01*
X400693Y192151D01*
X400656Y191993D01*
X400647Y191818D01*
Y191762D01*
X400656Y191725D01*
X400666Y191614D01*
X400703Y191485D01*
X400749Y191328D01*
X400823Y191171D01*
X400934Y191004D01*
X400998Y190930D01*
X401072Y190856D01*
X401082Y190847D01*
X401091Y190838D01*
X401119Y190819D01*
X401146Y190791D01*
X401248Y190727D01*
X401377Y190653D01*
X401535Y190588D01*
X401729Y190523D01*
X401960Y190477D01*
X402080Y190459D01*
X402210D01*
X402219D01*
X402237D01*
X402274D01*
X402321Y190468D01*
X402376D01*
X402441Y190477D01*
X402589Y190505D01*
X402764Y190551D01*
X402940Y190616D01*
X403106Y190708D01*
X403264Y190838D01*
X403273D01*
X403282Y190856D01*
X403328Y190902D01*
X403393Y190986D01*
X403467Y191097D01*
X403532Y191245D01*
X403596Y191411D01*
X403643Y191605D01*
X403661Y191716D01*
Y191892D01*
X403652Y191966D01*
X403643Y192058D01*
X403615Y192169D01*
X403587Y192280D01*
X403541Y192400D01*
X403485Y192520D01*
X403476Y192530D01*
X403458Y192567D01*
X403411Y192622D01*
X403365Y192696D01*
X403301Y192770D01*
X403217Y192844D01*
X403134Y192927D01*
X403032Y192992D01*
X403134Y193732D01*
X406426Y193112D01*
Y189932D01*
X405677D01*
Y192493D01*
X403948Y192835D01*
X403957Y192826D01*
X403966Y192807D01*
X403985Y192779D01*
X404012Y192733D01*
X404040Y192678D01*
X404077Y192613D01*
X404151Y192465D01*
X404225Y192280D01*
X404290Y192077D01*
X404336Y191855D01*
X404355Y191744D01*
Y191540D01*
X404345Y191485D01*
X404336Y191411D01*
X404327Y191328D01*
X404308Y191235D01*
X404281Y191134D01*
X404216Y190912D01*
X404170Y190791D01*
X404105Y190671D01*
X404040Y190551D01*
X403966Y190431D01*
X403874Y190320D01*
X403772Y190209D01*
X403763Y190200D01*
X403744Y190181D01*
X403717Y190154D01*
X403670Y190117D01*
X403606Y190070D01*
X403541Y190024D01*
X403458Y189969D01*
X403365Y189913D01*
X403264Y189867D01*
X403153Y189811D01*
X403023Y189765D01*
X402894Y189719D01*
X402755Y189682D01*
X402598Y189654D01*
X402441Y189636D01*
X402274Y189627D01*
X402265D01*
X402237D01*
X402191D01*
X402126Y189636D01*
X402052Y189645D01*
X401969Y189654D01*
X401867Y189673D01*
X401766Y189691D01*
X401525Y189747D01*
X401276Y189839D01*
X401146Y189895D01*
X401026Y189969D01*
X400897Y190043D01*
X400776Y190135D01*
X400767Y190144D01*
X400740Y190163D01*
X400703Y190200D01*
X400656Y190246D01*
X400601Y190311D01*
X400527Y190385D01*
X400462Y190477D01*
X400388Y190579D01*
X400314Y190690D01*
X400249Y190819D01*
X400185Y190958D01*
X400120Y191106D01*
X400074Y191263D01*
X400037Y191439D01*
X400009Y191624D01*
X400000Y191818D01*
Y191901D01*
X400009Y191966D01*
X400018Y192040D01*
X400028Y192123D01*
X400037Y192225D01*
X400065Y192326D01*
X400120Y192557D01*
X400203Y192789D01*
X400259Y192909D01*
X400323Y193029D01*
X400397Y193140D01*
X400481Y193251D01*
X400490Y193260D01*
X400499Y193279D01*
X400536Y193297D01*
X400573Y193334D01*
X400619Y193380D01*
X400675Y193426D01*
X400749Y193482D01*
X400832Y193528D01*
X400915Y193584D01*
X401017Y193639D01*
X401239Y193741D01*
X401498Y193824D01*
X401636Y193852D01*
X401784Y193870D01*
X401849Y193047D01*
D02*
G37*
G36*
X336509Y197541D02*
X336499Y197374D01*
X336490Y197189D01*
X336472Y197005D01*
X336444Y196820D01*
X336416Y196662D01*
Y196653D01*
X336407Y196635D01*
Y196607D01*
X336389Y196570D01*
X336361Y196468D01*
X336315Y196339D01*
X336250Y196191D01*
X336167Y196034D01*
X336074Y195877D01*
X335954Y195729D01*
X335945Y195719D01*
X335936Y195710D01*
X335908Y195682D01*
X335880Y195645D01*
X335788Y195553D01*
X335658Y195442D01*
X335501Y195322D01*
X335316Y195192D01*
X335103Y195072D01*
X334863Y194970D01*
X334854D01*
X334835Y194961D01*
X334798Y194943D01*
X334743Y194933D01*
X334678Y194906D01*
X334604Y194887D01*
X334521Y194869D01*
X334419Y194841D01*
X334318Y194813D01*
X334197Y194795D01*
X333938Y194749D01*
X333652Y194721D01*
X333338Y194712D01*
X333328D01*
X333310D01*
X333264D01*
X333217D01*
X333153Y194721D01*
X333079D01*
X332903Y194730D01*
X332700Y194758D01*
X332487Y194786D01*
X332265Y194832D01*
X332043Y194887D01*
X332034D01*
X332015Y194897D01*
X331988Y194906D01*
X331951Y194915D01*
X331849Y194952D01*
X331720Y195007D01*
X331572Y195063D01*
X331424Y195137D01*
X331267Y195229D01*
X331119Y195322D01*
X331100Y195331D01*
X331054Y195368D01*
X330989Y195424D01*
X330906Y195497D01*
X330813Y195581D01*
X330721Y195682D01*
X330619Y195784D01*
X330536Y195904D01*
X330527Y195923D01*
X330499Y195960D01*
X330462Y196024D01*
X330416Y196117D01*
X330360Y196228D01*
X330314Y196357D01*
X330259Y196505D01*
X330213Y196672D01*
Y196690D01*
X330203Y196718D01*
X330194Y196746D01*
X330185Y196838D01*
X330166Y196968D01*
X330148Y197115D01*
X330129Y197291D01*
X330120Y197485D01*
X330111Y197698D01*
Y200000D01*
X336509D01*
Y197541D01*
D02*
G37*
G36*
X333273Y193898D02*
X333402D01*
X333550Y193889D01*
X333726Y193870D01*
X333920Y193852D01*
X334133Y193824D01*
X334345Y193787D01*
X334576Y193741D01*
X334798Y193685D01*
X335020Y193621D01*
X335233Y193537D01*
X335436Y193445D01*
X335630Y193343D01*
X335797Y193223D01*
X335806Y193214D01*
X335825Y193195D01*
X335862Y193158D01*
X335917Y193112D01*
X335973Y193057D01*
X336028Y192983D01*
X336102Y192890D01*
X336167Y192798D01*
X336231Y192687D01*
X336305Y192567D01*
X336361Y192428D01*
X336426Y192289D01*
X336472Y192132D01*
X336509Y191966D01*
X336527Y191790D01*
X336536Y191605D01*
Y191531D01*
X336527Y191476D01*
Y191411D01*
X336518Y191337D01*
X336481Y191161D01*
X336435Y190967D01*
X336361Y190764D01*
X336250Y190560D01*
X336185Y190459D01*
X336111Y190366D01*
X336102Y190357D01*
X336093Y190348D01*
X336065Y190320D01*
X336037Y190292D01*
X335991Y190246D01*
X335936Y190209D01*
X335806Y190107D01*
X335640Y190006D01*
X335436Y189913D01*
X335205Y189830D01*
X334946Y189774D01*
X334882Y190560D01*
X334891D01*
X334900Y190570D01*
X334955Y190579D01*
X335039Y190607D01*
X335140Y190644D01*
X335251Y190681D01*
X335362Y190736D01*
X335464Y190801D01*
X335547Y190865D01*
X335566Y190884D01*
X335603Y190921D01*
X335658Y190986D01*
X335723Y191078D01*
X335778Y191198D01*
X335834Y191328D01*
X335871Y191485D01*
X335889Y191651D01*
Y191716D01*
X335880Y191790D01*
X335862Y191873D01*
X335834Y191984D01*
X335797Y192095D01*
X335751Y192206D01*
X335677Y192317D01*
X335667Y192335D01*
X335630Y192382D01*
X335566Y192446D01*
X335473Y192530D01*
X335362Y192622D01*
X335233Y192724D01*
X335066Y192816D01*
X334882Y192909D01*
X334872D01*
X334854Y192918D01*
X334826Y192927D01*
X334789Y192946D01*
X334734Y192955D01*
X334669Y192973D01*
X334595Y192992D01*
X334502Y193010D01*
X334401Y193038D01*
X334290Y193057D01*
X334170Y193075D01*
X334040Y193084D01*
X333892Y193103D01*
X333744Y193112D01*
X333578Y193121D01*
X333411D01*
X333421Y193112D01*
X333476Y193075D01*
X333550Y193010D01*
X333643Y192927D01*
X333754Y192835D01*
X333855Y192715D01*
X333957Y192585D01*
X334049Y192437D01*
Y192428D01*
X334059Y192419D01*
X334086Y192363D01*
X334114Y192280D01*
X334160Y192169D01*
X334197Y192040D01*
X334225Y191892D01*
X334253Y191735D01*
X334262Y191568D01*
Y191494D01*
X334253Y191439D01*
X334244Y191365D01*
X334234Y191291D01*
X334216Y191198D01*
X334188Y191106D01*
X334123Y190893D01*
X334077Y190782D01*
X334012Y190671D01*
X333948Y190560D01*
X333874Y190440D01*
X333781Y190329D01*
X333680Y190228D01*
X333670Y190218D01*
X333652Y190200D01*
X333624Y190172D01*
X333578Y190144D01*
X333513Y190098D01*
X333448Y190052D01*
X333365Y190006D01*
X333273Y189950D01*
X333171Y189895D01*
X333060Y189848D01*
X332931Y189802D01*
X332801Y189756D01*
X332663Y189728D01*
X332505Y189701D01*
X332348Y189682D01*
X332182Y189673D01*
X332173D01*
X332154D01*
X332126D01*
X332080D01*
X332025Y189682D01*
X331969D01*
X331821Y189710D01*
X331646Y189737D01*
X331461Y189784D01*
X331257Y189848D01*
X331063Y189941D01*
X331054D01*
X331045Y189950D01*
X331017Y189969D01*
X330980Y189987D01*
X330887Y190043D01*
X330767Y190126D01*
X330638Y190228D01*
X330508Y190348D01*
X330379Y190496D01*
X330268Y190653D01*
Y190662D01*
X330259Y190671D01*
X330240Y190699D01*
X330231Y190736D01*
X330185Y190828D01*
X330139Y190949D01*
X330083Y191106D01*
X330046Y191282D01*
X330009Y191476D01*
X330000Y191688D01*
Y191735D01*
X330009Y191781D01*
Y191855D01*
X330018Y191938D01*
X330037Y192030D01*
X330065Y192141D01*
X330092Y192252D01*
X330129Y192382D01*
X330176Y192511D01*
X330231Y192641D01*
X330305Y192779D01*
X330388Y192909D01*
X330481Y193038D01*
X330592Y193168D01*
X330721Y193288D01*
X330730Y193297D01*
X330758Y193316D01*
X330795Y193343D01*
X330860Y193380D01*
X330943Y193436D01*
X331035Y193482D01*
X331156Y193537D01*
X331285Y193593D01*
X331442Y193658D01*
X331618Y193713D01*
X331812Y193759D01*
X332025Y193806D01*
X332265Y193852D01*
X332524Y193880D01*
X332801Y193898D01*
X333097Y193907D01*
X333106D01*
X333116D01*
X333143D01*
X333180D01*
X333273Y193898D01*
D02*
G37*
G36*
X266398Y197541D02*
X266389Y197374D01*
X266379Y197189D01*
X266361Y197005D01*
X266333Y196820D01*
X266305Y196662D01*
Y196653D01*
X266296Y196635D01*
Y196607D01*
X266278Y196570D01*
X266250Y196468D01*
X266204Y196339D01*
X266139Y196191D01*
X266056Y196034D01*
X265963Y195877D01*
X265843Y195729D01*
X265834Y195719D01*
X265825Y195710D01*
X265797Y195682D01*
X265769Y195645D01*
X265677Y195553D01*
X265547Y195442D01*
X265390Y195322D01*
X265205Y195192D01*
X264993Y195072D01*
X264752Y194970D01*
X264743D01*
X264724Y194961D01*
X264687Y194943D01*
X264632Y194933D01*
X264567Y194906D01*
X264493Y194887D01*
X264410Y194869D01*
X264308Y194841D01*
X264207Y194813D01*
X264086Y194795D01*
X263827Y194749D01*
X263541Y194721D01*
X263227Y194712D01*
X263217D01*
X263199D01*
X263153D01*
X263106D01*
X263042Y194721D01*
X262968D01*
X262792Y194730D01*
X262589Y194758D01*
X262376Y194786D01*
X262154Y194832D01*
X261932Y194887D01*
X261923D01*
X261905Y194897D01*
X261877Y194906D01*
X261840Y194915D01*
X261738Y194952D01*
X261609Y195007D01*
X261461Y195063D01*
X261313Y195137D01*
X261156Y195229D01*
X261008Y195322D01*
X260989Y195331D01*
X260943Y195368D01*
X260878Y195424D01*
X260795Y195497D01*
X260702Y195581D01*
X260610Y195682D01*
X260508Y195784D01*
X260425Y195904D01*
X260416Y195923D01*
X260388Y195960D01*
X260351Y196024D01*
X260305Y196117D01*
X260250Y196228D01*
X260203Y196357D01*
X260148Y196505D01*
X260102Y196672D01*
Y196690D01*
X260092Y196718D01*
X260083Y196746D01*
X260074Y196838D01*
X260055Y196968D01*
X260037Y197115D01*
X260018Y197291D01*
X260009Y197485D01*
X260000Y197698D01*
Y200000D01*
X266398D01*
Y197541D01*
D02*
G37*
G36*
X266315Y189673D02*
X265695D01*
X265686Y189682D01*
X265667Y189701D01*
X265630Y189737D01*
X265575Y189774D01*
X265510Y189830D01*
X265436Y189904D01*
X265344Y189978D01*
X265233Y190061D01*
X265122Y190144D01*
X264993Y190246D01*
X264845Y190348D01*
X264697Y190449D01*
X264530Y190560D01*
X264354Y190671D01*
X264160Y190782D01*
X263966Y190893D01*
X263957Y190902D01*
X263920Y190921D01*
X263864Y190949D01*
X263781Y190995D01*
X263680Y191041D01*
X263569Y191097D01*
X263439Y191161D01*
X263291Y191226D01*
X263125Y191300D01*
X262959Y191383D01*
X262773Y191457D01*
X262579Y191531D01*
X262182Y191679D01*
X261756Y191818D01*
X261747D01*
X261719Y191827D01*
X261673Y191836D01*
X261618Y191855D01*
X261544Y191873D01*
X261451Y191892D01*
X261350Y191919D01*
X261239Y191938D01*
X261109Y191966D01*
X260971Y191993D01*
X260675Y192040D01*
X260351Y192086D01*
X260000Y192114D01*
Y192918D01*
X260009D01*
X260037D01*
X260074D01*
X260129Y192909D01*
X260203D01*
X260296Y192899D01*
X260397Y192890D01*
X260508Y192881D01*
X260638Y192862D01*
X260767Y192844D01*
X260924Y192816D01*
X261082Y192789D01*
X261248Y192761D01*
X261433Y192724D01*
X261812Y192631D01*
X261821D01*
X261858Y192622D01*
X261914Y192604D01*
X261997Y192576D01*
X262089Y192548D01*
X262200Y192511D01*
X262330Y192474D01*
X262468Y192419D01*
X262626Y192363D01*
X262783Y192308D01*
X263134Y192169D01*
X263504Y192003D01*
X263874Y191818D01*
X263883Y191808D01*
X263920Y191790D01*
X263966Y191762D01*
X264040Y191725D01*
X264123Y191679D01*
X264225Y191614D01*
X264336Y191550D01*
X264456Y191476D01*
X264724Y191300D01*
X265002Y191115D01*
X265288Y190902D01*
X265557Y190681D01*
Y193815D01*
X266315D01*
Y189673D01*
D02*
G37*
G36*
X196509Y197541D02*
X196500Y197374D01*
X196490Y197189D01*
X196472Y197005D01*
X196444Y196820D01*
X196416Y196662D01*
Y196653D01*
X196407Y196635D01*
Y196607D01*
X196389Y196570D01*
X196361Y196468D01*
X196315Y196339D01*
X196250Y196191D01*
X196167Y196034D01*
X196074Y195877D01*
X195954Y195729D01*
X195945Y195719D01*
X195935Y195710D01*
X195908Y195682D01*
X195880Y195645D01*
X195788Y195553D01*
X195658Y195442D01*
X195501Y195322D01*
X195316Y195192D01*
X195103Y195072D01*
X194863Y194970D01*
X194854D01*
X194835Y194961D01*
X194798Y194943D01*
X194743Y194933D01*
X194678Y194906D01*
X194604Y194887D01*
X194521Y194869D01*
X194419Y194841D01*
X194317Y194813D01*
X194197Y194795D01*
X193939Y194749D01*
X193652Y194721D01*
X193337Y194712D01*
X193328D01*
X193310D01*
X193263D01*
X193217D01*
X193153Y194721D01*
X193079D01*
X192903Y194730D01*
X192700Y194758D01*
X192487Y194786D01*
X192265Y194832D01*
X192043Y194887D01*
X192034D01*
X192015Y194897D01*
X191988Y194906D01*
X191951Y194915D01*
X191849Y194952D01*
X191719Y195007D01*
X191572Y195063D01*
X191424Y195137D01*
X191266Y195229D01*
X191119Y195322D01*
X191100Y195331D01*
X191054Y195368D01*
X190989Y195424D01*
X190906Y195497D01*
X190814Y195581D01*
X190721Y195682D01*
X190619Y195784D01*
X190536Y195904D01*
X190527Y195923D01*
X190499Y195960D01*
X190462Y196024D01*
X190416Y196117D01*
X190360Y196228D01*
X190314Y196357D01*
X190259Y196505D01*
X190212Y196672D01*
Y196690D01*
X190203Y196718D01*
X190194Y196746D01*
X190185Y196838D01*
X190166Y196968D01*
X190148Y197115D01*
X190129Y197291D01*
X190120Y197485D01*
X190111Y197698D01*
Y200000D01*
X196509D01*
Y197541D01*
D02*
G37*
G36*
X192052Y193870D02*
X192108D01*
X192173Y193861D01*
X192320Y193843D01*
X192487Y193806D01*
X192653Y193750D01*
X192829Y193667D01*
X192995Y193565D01*
X193005D01*
X193014Y193547D01*
X193060Y193510D01*
X193134Y193436D01*
X193227Y193334D01*
X193319Y193205D01*
X193421Y193047D01*
X193504Y192872D01*
X193569Y192659D01*
Y192668D01*
X193578Y192678D01*
X193587Y192705D01*
X193606Y192742D01*
X193643Y192826D01*
X193698Y192936D01*
X193772Y193057D01*
X193864Y193177D01*
X193966Y193288D01*
X194077Y193389D01*
X194096Y193399D01*
X194133Y193426D01*
X194207Y193463D01*
X194299Y193500D01*
X194419Y193547D01*
X194558Y193584D01*
X194715Y193611D01*
X194881Y193621D01*
X194891D01*
X194909D01*
X194946D01*
X195002Y193611D01*
X195057Y193602D01*
X195131Y193593D01*
X195288Y193556D01*
X195473Y193500D01*
X195667Y193408D01*
X195769Y193353D01*
X195871Y193288D01*
X195963Y193205D01*
X196056Y193121D01*
X196065Y193112D01*
X196074Y193094D01*
X196102Y193066D01*
X196130Y193029D01*
X196167Y192983D01*
X196204Y192918D01*
X196250Y192844D01*
X196296Y192770D01*
X196342Y192678D01*
X196389Y192576D01*
X196425Y192465D01*
X196462Y192345D01*
X196518Y192086D01*
X196527Y191938D01*
X196537Y191790D01*
Y191707D01*
X196527Y191651D01*
X196518Y191577D01*
X196509Y191494D01*
X196500Y191402D01*
X196472Y191309D01*
X196416Y191087D01*
X196333Y190865D01*
X196278Y190755D01*
X196213Y190644D01*
X196130Y190542D01*
X196047Y190440D01*
X196037Y190431D01*
X196028Y190422D01*
X196000Y190394D01*
X195963Y190357D01*
X195908Y190320D01*
X195852Y190274D01*
X195714Y190181D01*
X195538Y190089D01*
X195335Y190006D01*
X195103Y189941D01*
X194983Y189932D01*
X194854Y189922D01*
X194844D01*
X194835D01*
X194780D01*
X194697Y189932D01*
X194595Y189950D01*
X194466Y189978D01*
X194336Y190024D01*
X194207Y190080D01*
X194077Y190163D01*
X194059Y190172D01*
X194022Y190209D01*
X193966Y190264D01*
X193892Y190338D01*
X193809Y190440D01*
X193726Y190560D01*
X193643Y190699D01*
X193569Y190865D01*
Y190856D01*
X193559Y190838D01*
X193550Y190810D01*
X193532Y190773D01*
X193485Y190662D01*
X193421Y190533D01*
X193328Y190394D01*
X193227Y190246D01*
X193097Y190107D01*
X192949Y189978D01*
X192940D01*
X192931Y189969D01*
X192875Y189932D01*
X192783Y189876D01*
X192663Y189821D01*
X192515Y189765D01*
X192339Y189710D01*
X192145Y189673D01*
X191932Y189664D01*
X191923D01*
X191895D01*
X191849D01*
X191793Y189673D01*
X191729Y189682D01*
X191646Y189691D01*
X191553Y189710D01*
X191451Y189737D01*
X191239Y189802D01*
X191119Y189848D01*
X191008Y189913D01*
X190887Y189978D01*
X190777Y190052D01*
X190665Y190144D01*
X190555Y190246D01*
X190545Y190255D01*
X190527Y190274D01*
X190499Y190301D01*
X190471Y190348D01*
X190425Y190412D01*
X190379Y190477D01*
X190333Y190560D01*
X190277Y190653D01*
X190222Y190755D01*
X190175Y190875D01*
X190129Y191004D01*
X190083Y191134D01*
X190055Y191282D01*
X190028Y191439D01*
X190009Y191596D01*
X190000Y191772D01*
Y191864D01*
X190009Y191929D01*
X190018Y192012D01*
X190028Y192104D01*
X190046Y192206D01*
X190074Y192317D01*
X190138Y192567D01*
X190185Y192696D01*
X190231Y192816D01*
X190296Y192946D01*
X190370Y193075D01*
X190453Y193195D01*
X190555Y193306D01*
X190564Y193316D01*
X190582Y193334D01*
X190610Y193362D01*
X190656Y193399D01*
X190712Y193436D01*
X190777Y193491D01*
X190850Y193537D01*
X190943Y193593D01*
X191035Y193648D01*
X191146Y193695D01*
X191377Y193787D01*
X191516Y193824D01*
X191655Y193852D01*
X191803Y193870D01*
X191951Y193880D01*
X191960D01*
X191978D01*
X192015D01*
X192052Y193870D01*
D02*
G37*
G36*
X126509Y197541D02*
X126500Y197374D01*
X126490Y197189D01*
X126472Y197005D01*
X126444Y196820D01*
X126416Y196662D01*
Y196653D01*
X126407Y196635D01*
Y196607D01*
X126389Y196570D01*
X126361Y196468D01*
X126315Y196339D01*
X126250Y196191D01*
X126167Y196034D01*
X126074Y195877D01*
X125954Y195729D01*
X125945Y195719D01*
X125935Y195710D01*
X125908Y195682D01*
X125880Y195645D01*
X125788Y195553D01*
X125658Y195442D01*
X125501Y195322D01*
X125316Y195192D01*
X125103Y195072D01*
X124863Y194970D01*
X124854D01*
X124835Y194961D01*
X124798Y194943D01*
X124743Y194933D01*
X124678Y194906D01*
X124604Y194887D01*
X124521Y194869D01*
X124419Y194841D01*
X124318Y194813D01*
X124197Y194795D01*
X123939Y194749D01*
X123652Y194721D01*
X123337Y194712D01*
X123328D01*
X123310D01*
X123264D01*
X123217D01*
X123153Y194721D01*
X123079D01*
X122903Y194730D01*
X122700Y194758D01*
X122487Y194786D01*
X122265Y194832D01*
X122043Y194887D01*
X122034D01*
X122015Y194897D01*
X121988Y194906D01*
X121951Y194915D01*
X121849Y194952D01*
X121720Y195007D01*
X121572Y195063D01*
X121424Y195137D01*
X121266Y195229D01*
X121119Y195322D01*
X121100Y195331D01*
X121054Y195368D01*
X120989Y195424D01*
X120906Y195497D01*
X120813Y195581D01*
X120721Y195682D01*
X120619Y195784D01*
X120536Y195904D01*
X120527Y195923D01*
X120499Y195960D01*
X120462Y196024D01*
X120416Y196117D01*
X120360Y196228D01*
X120314Y196357D01*
X120259Y196505D01*
X120212Y196672D01*
Y196690D01*
X120203Y196718D01*
X120194Y196746D01*
X120185Y196838D01*
X120166Y196968D01*
X120148Y197115D01*
X120129Y197291D01*
X120120Y197485D01*
X120111Y197698D01*
Y200000D01*
X126509D01*
Y197541D01*
D02*
G37*
G36*
X124530Y193861D02*
X124613Y193852D01*
X124715Y193843D01*
X124817Y193824D01*
X124937Y193796D01*
X125177Y193732D01*
X125307Y193685D01*
X125445Y193630D01*
X125575Y193565D01*
X125695Y193482D01*
X125825Y193399D01*
X125935Y193297D01*
X125945Y193288D01*
X125963Y193269D01*
X125991Y193242D01*
X126028Y193195D01*
X126074Y193140D01*
X126130Y193066D01*
X126176Y192992D01*
X126241Y192899D01*
X126296Y192807D01*
X126342Y192696D01*
X126444Y192446D01*
X126481Y192317D01*
X126509Y192169D01*
X126527Y192021D01*
X126537Y191864D01*
Y191799D01*
X126527Y191753D01*
Y191707D01*
X126518Y191642D01*
X126490Y191485D01*
X126453Y191309D01*
X126389Y191115D01*
X126305Y190921D01*
X126194Y190727D01*
Y190718D01*
X126176Y190708D01*
X126157Y190681D01*
X126130Y190644D01*
X126056Y190551D01*
X125954Y190431D01*
X125815Y190311D01*
X125649Y190172D01*
X125455Y190052D01*
X125233Y189941D01*
X125224D01*
X125205Y189932D01*
X125168Y189913D01*
X125122Y189895D01*
X125057Y189876D01*
X124974Y189848D01*
X124881Y189830D01*
X124780Y189802D01*
X124660Y189774D01*
X124521Y189747D01*
X124373Y189728D01*
X124216Y189710D01*
X124040Y189691D01*
X123855Y189673D01*
X123652Y189664D01*
X123439D01*
X123430D01*
X123384D01*
X123319D01*
X123236D01*
X123134Y189673D01*
X123014D01*
X122875Y189682D01*
X122737Y189701D01*
X122422Y189728D01*
X122089Y189774D01*
X121775Y189839D01*
X121618Y189885D01*
X121479Y189932D01*
X121470D01*
X121451Y189941D01*
X121414Y189959D01*
X121359Y189978D01*
X121304Y190006D01*
X121229Y190043D01*
X121072Y190135D01*
X120897Y190246D01*
X120712Y190375D01*
X120536Y190542D01*
X120379Y190727D01*
Y190736D01*
X120360Y190755D01*
X120342Y190782D01*
X120323Y190819D01*
X120296Y190875D01*
X120259Y190930D01*
X120222Y191004D01*
X120194Y191078D01*
X120120Y191254D01*
X120055Y191466D01*
X120018Y191698D01*
X120000Y191956D01*
Y192030D01*
X120009Y192077D01*
Y192141D01*
X120018Y192215D01*
X120055Y192391D01*
X120101Y192585D01*
X120176Y192789D01*
X120277Y192992D01*
X120342Y193094D01*
X120416Y193186D01*
X120425Y193195D01*
X120434Y193205D01*
X120462Y193232D01*
X120490Y193260D01*
X120536Y193297D01*
X120592Y193343D01*
X120721Y193436D01*
X120887Y193528D01*
X121091Y193621D01*
X121322Y193695D01*
X121590Y193750D01*
X121655Y192992D01*
X121646D01*
X121627Y192983D01*
X121609D01*
X121572Y192973D01*
X121470Y192946D01*
X121359Y192909D01*
X121229Y192862D01*
X121100Y192798D01*
X120980Y192724D01*
X120878Y192631D01*
X120869Y192622D01*
X120841Y192585D01*
X120804Y192520D01*
X120767Y192446D01*
X120721Y192345D01*
X120684Y192225D01*
X120656Y192086D01*
X120647Y191938D01*
Y191873D01*
X120656Y191808D01*
X120666Y191725D01*
X120684Y191624D01*
X120712Y191522D01*
X120749Y191411D01*
X120804Y191309D01*
X120813Y191300D01*
X120832Y191263D01*
X120869Y191208D01*
X120924Y191152D01*
X120989Y191078D01*
X121063Y191004D01*
X121146Y190930D01*
X121248Y190856D01*
X121257Y190847D01*
X121304Y190828D01*
X121368Y190791D01*
X121451Y190755D01*
X121562Y190708D01*
X121692Y190662D01*
X121840Y190616D01*
X122006Y190570D01*
X122015D01*
X122025Y190560D01*
X122052D01*
X122089Y190551D01*
X122182Y190533D01*
X122302Y190505D01*
X122450Y190486D01*
X122607Y190468D01*
X122783Y190459D01*
X122968Y190449D01*
X122977D01*
X123005D01*
X123051D01*
X123125D01*
X123106Y190459D01*
X123060Y190496D01*
X122995Y190551D01*
X122903Y190616D01*
X122810Y190708D01*
X122709Y190819D01*
X122607Y190949D01*
X122515Y191097D01*
X122505Y191115D01*
X122478Y191171D01*
X122441Y191254D01*
X122404Y191355D01*
X122358Y191494D01*
X122320Y191642D01*
X122293Y191808D01*
X122283Y191984D01*
Y192058D01*
X122293Y192114D01*
X122302Y192188D01*
X122311Y192262D01*
X122330Y192354D01*
X122358Y192446D01*
X122422Y192659D01*
X122468Y192770D01*
X122524Y192881D01*
X122589Y193001D01*
X122672Y193112D01*
X122755Y193223D01*
X122857Y193325D01*
X122866Y193334D01*
X122885Y193353D01*
X122912Y193371D01*
X122958Y193408D01*
X123023Y193454D01*
X123088Y193500D01*
X123171Y193547D01*
X123264Y193593D01*
X123365Y193648D01*
X123476Y193695D01*
X123606Y193741D01*
X123735Y193787D01*
X123883Y193824D01*
X124040Y193843D01*
X124197Y193861D01*
X124373Y193870D01*
X124382D01*
X124419D01*
X124466D01*
X124530Y193861D01*
D02*
G37*
G36*
X56509Y197541D02*
X56500Y197374D01*
X56490Y197189D01*
X56472Y197005D01*
X56444Y196820D01*
X56416Y196662D01*
Y196653D01*
X56407Y196635D01*
Y196607D01*
X56389Y196570D01*
X56361Y196468D01*
X56315Y196339D01*
X56250Y196191D01*
X56167Y196034D01*
X56074Y195877D01*
X55954Y195729D01*
X55945Y195719D01*
X55936Y195710D01*
X55908Y195682D01*
X55880Y195645D01*
X55788Y195553D01*
X55658Y195442D01*
X55501Y195322D01*
X55316Y195192D01*
X55103Y195072D01*
X54863Y194970D01*
X54854D01*
X54835Y194961D01*
X54798Y194943D01*
X54743Y194933D01*
X54678Y194906D01*
X54604Y194887D01*
X54521Y194869D01*
X54419Y194841D01*
X54318Y194813D01*
X54197Y194795D01*
X53938Y194749D01*
X53652Y194721D01*
X53337Y194712D01*
X53328D01*
X53310D01*
X53264D01*
X53217D01*
X53153Y194721D01*
X53079D01*
X52903Y194730D01*
X52700Y194758D01*
X52487Y194786D01*
X52265Y194832D01*
X52043Y194887D01*
X52034D01*
X52015Y194897D01*
X51988Y194906D01*
X51951Y194915D01*
X51849Y194952D01*
X51720Y195007D01*
X51572Y195063D01*
X51424Y195137D01*
X51266Y195229D01*
X51119Y195322D01*
X51100Y195331D01*
X51054Y195368D01*
X50989Y195424D01*
X50906Y195497D01*
X50813Y195581D01*
X50721Y195682D01*
X50619Y195784D01*
X50536Y195904D01*
X50527Y195923D01*
X50499Y195960D01*
X50462Y196024D01*
X50416Y196117D01*
X50360Y196228D01*
X50314Y196357D01*
X50259Y196505D01*
X50212Y196672D01*
Y196690D01*
X50203Y196718D01*
X50194Y196746D01*
X50185Y196838D01*
X50166Y196968D01*
X50148Y197115D01*
X50129Y197291D01*
X50120Y197485D01*
X50111Y197698D01*
Y200000D01*
X56509D01*
Y197541D01*
D02*
G37*
G36*
X54928Y193260D02*
X54946Y193242D01*
X54956Y193205D01*
X54983Y193158D01*
X55011Y193103D01*
X55048Y193038D01*
X55140Y192881D01*
X55242Y192696D01*
X55372Y192511D01*
X55519Y192317D01*
X55677Y192123D01*
X55686Y192114D01*
X55695Y192104D01*
X55723Y192077D01*
X55751Y192040D01*
X55843Y191956D01*
X55954Y191845D01*
X56083Y191735D01*
X56231Y191614D01*
X56379Y191513D01*
X56536Y191420D01*
Y190912D01*
X50111D01*
Y191698D01*
X55113D01*
X55103Y191707D01*
X55066Y191753D01*
X55011Y191808D01*
X54946Y191901D01*
X54863Y192003D01*
X54771Y192132D01*
X54669Y192280D01*
X54567Y192446D01*
Y192456D01*
X54558Y192465D01*
X54521Y192520D01*
X54475Y192613D01*
X54419Y192724D01*
X54355Y192853D01*
X54290Y192992D01*
X54225Y193131D01*
X54170Y193269D01*
X54928D01*
Y193260D01*
D02*
G37*
G36*
X53550Y188887D02*
X53661D01*
X53781Y188878D01*
X53920Y188868D01*
X54207Y188841D01*
X54512Y188794D01*
X54817Y188739D01*
X54956Y188702D01*
X55094Y188665D01*
X55103D01*
X55122Y188656D01*
X55159Y188637D01*
X55205Y188619D01*
X55270Y188600D01*
X55335Y188563D01*
X55492Y188489D01*
X55658Y188397D01*
X55834Y188277D01*
X56009Y188138D01*
X56157Y187972D01*
Y187962D01*
X56176Y187953D01*
X56194Y187925D01*
X56213Y187888D01*
X56250Y187842D01*
X56278Y187787D01*
X56352Y187648D01*
X56416Y187481D01*
X56481Y187287D01*
X56518Y187056D01*
X56536Y186807D01*
Y186723D01*
X56527Y186622D01*
X56509Y186502D01*
X56481Y186363D01*
X56444Y186215D01*
X56398Y186058D01*
X56324Y185910D01*
Y185900D01*
X56315Y185891D01*
X56287Y185845D01*
X56241Y185771D01*
X56176Y185679D01*
X56083Y185577D01*
X55982Y185466D01*
X55862Y185364D01*
X55723Y185263D01*
X55704Y185253D01*
X55658Y185216D01*
X55575Y185179D01*
X55455Y185115D01*
X55316Y185059D01*
X55159Y184985D01*
X54974Y184921D01*
X54771Y184865D01*
X54761D01*
X54743Y184856D01*
X54715Y184846D01*
X54669Y184837D01*
X54613Y184828D01*
X54549Y184819D01*
X54465Y184800D01*
X54373Y184791D01*
X54271Y184773D01*
X54160Y184763D01*
X54031Y184754D01*
X53902Y184736D01*
X53754Y184726D01*
X53606D01*
X53439Y184717D01*
X53264D01*
X53254D01*
X53217D01*
X53153D01*
X53079D01*
X52977Y184726D01*
X52866D01*
X52746Y184736D01*
X52616Y184745D01*
X52320Y184773D01*
X52015Y184819D01*
X51720Y184874D01*
X51581Y184911D01*
X51442Y184958D01*
X51433D01*
X51414Y184967D01*
X51378Y184985D01*
X51331Y185004D01*
X51266Y185022D01*
X51202Y185059D01*
X51045Y185133D01*
X50878Y185226D01*
X50693Y185346D01*
X50527Y185485D01*
X50370Y185651D01*
Y185660D01*
X50351Y185669D01*
X50333Y185697D01*
X50314Y185734D01*
X50286Y185780D01*
X50250Y185827D01*
X50185Y185965D01*
X50120Y186132D01*
X50055Y186326D01*
X50018Y186557D01*
X50000Y186807D01*
Y186899D01*
X50009Y186964D01*
X50018Y187038D01*
X50037Y187130D01*
X50055Y187232D01*
X50083Y187343D01*
X50120Y187454D01*
X50157Y187574D01*
X50212Y187694D01*
X50277Y187814D01*
X50351Y187935D01*
X50444Y188055D01*
X50545Y188166D01*
X50656Y188267D01*
X50666Y188277D01*
X50693Y188295D01*
X50739Y188323D01*
X50813Y188369D01*
X50897Y188415D01*
X51008Y188462D01*
X51137Y188526D01*
X51285Y188582D01*
X51451Y188637D01*
X51646Y188693D01*
X51858Y188748D01*
X52099Y188794D01*
X52358Y188841D01*
X52635Y188868D01*
X52940Y188887D01*
X53264Y188896D01*
X53273D01*
X53310D01*
X53375D01*
X53449D01*
X53550Y188887D01*
D02*
G37*
G36*
X679889Y56758D02*
X674887D01*
X674896Y56749D01*
X674933Y56703D01*
X674989Y56648D01*
X675054Y56555D01*
X675137Y56453D01*
X675229Y56324D01*
X675331Y56176D01*
X675433Y56009D01*
Y56000D01*
X675442Y55991D01*
X675479Y55936D01*
X675525Y55843D01*
X675581Y55732D01*
X675645Y55603D01*
X675710Y55464D01*
X675775Y55325D01*
X675830Y55187D01*
X675072D01*
Y55196D01*
X675054Y55214D01*
X675044Y55251D01*
X675017Y55298D01*
X674989Y55353D01*
X674952Y55418D01*
X674859Y55575D01*
X674758Y55760D01*
X674628Y55945D01*
X674481Y56139D01*
X674323Y56333D01*
X674314Y56342D01*
X674305Y56352D01*
X674277Y56379D01*
X674249Y56416D01*
X674157Y56500D01*
X674046Y56610D01*
X673916Y56721D01*
X673769Y56842D01*
X673621Y56943D01*
X673463Y57036D01*
Y57544D01*
X679889D01*
Y56758D01*
D02*
G37*
G36*
X678058Y53513D02*
X678132D01*
X678308Y53495D01*
X678512Y53476D01*
X678724Y53439D01*
X678918Y53384D01*
X679103Y53319D01*
X679112D01*
X679122Y53310D01*
X679177Y53282D01*
X679251Y53236D01*
X679353Y53171D01*
X679455Y53079D01*
X679566Y52977D01*
X679677Y52847D01*
X679769Y52700D01*
X679778Y52681D01*
X679806Y52626D01*
X679843Y52542D01*
X679880Y52422D01*
X679926Y52274D01*
X679963Y52108D01*
X679991Y51923D01*
X680000Y51720D01*
Y51636D01*
X679991Y51581D01*
X679982Y51507D01*
X679972Y51433D01*
X679935Y51239D01*
X679880Y51035D01*
X679797Y50823D01*
X679741Y50712D01*
X679677Y50610D01*
X679603Y50518D01*
X679519Y50425D01*
X679510Y50416D01*
X679501Y50407D01*
X679464Y50388D01*
X679427Y50360D01*
X679381Y50324D01*
X679316Y50286D01*
X679242Y50250D01*
X679159Y50203D01*
X679066Y50166D01*
X678955Y50129D01*
X678844Y50092D01*
X678715Y50055D01*
X678576Y50037D01*
X678419Y50009D01*
X678262Y50000D01*
X678086D01*
X677975Y50767D01*
X677984D01*
X678003D01*
X678040D01*
X678095Y50777D01*
X678151Y50786D01*
X678216D01*
X678373Y50813D01*
X678539Y50841D01*
X678706Y50897D01*
X678854Y50952D01*
X678918Y50989D01*
X678974Y51035D01*
X678983Y51045D01*
X679011Y51082D01*
X679057Y51137D01*
X679103Y51211D01*
X679159Y51313D01*
X679196Y51424D01*
X679233Y51562D01*
X679242Y51710D01*
Y51766D01*
X679233Y51821D01*
X679223Y51905D01*
X679205Y51988D01*
X679186Y52080D01*
X679149Y52173D01*
X679103Y52265D01*
X679094Y52274D01*
X679075Y52302D01*
X679038Y52339D01*
X679002Y52394D01*
X678937Y52441D01*
X678872Y52496D01*
X678798Y52542D01*
X678706Y52579D01*
X678697D01*
X678660Y52598D01*
X678595Y52607D01*
X678512Y52626D01*
X678401Y52644D01*
X678262Y52653D01*
X678095Y52672D01*
X677901D01*
X673491D01*
Y53522D01*
X677855D01*
X677864D01*
X677892D01*
X677929D01*
X677984D01*
X678058Y53513D01*
D02*
G37*
%LPC*%
G36*
X81587Y68472D02*
X79470D01*
Y66568D01*
X79479Y66457D01*
X79489Y66327D01*
X79498Y66179D01*
X79517Y66031D01*
X79544Y65884D01*
X79581Y65754D01*
X79591Y65736D01*
X79609Y65699D01*
X79637Y65643D01*
X79674Y65569D01*
X79729Y65486D01*
X79794Y65403D01*
X79877Y65320D01*
X79970Y65255D01*
X79979Y65246D01*
X80016Y65227D01*
X80071Y65199D01*
X80145Y65162D01*
X80228Y65135D01*
X80321Y65107D01*
X80432Y65089D01*
X80543Y65079D01*
X80552D01*
X80561D01*
X80617Y65089D01*
X80700Y65098D01*
X80811Y65116D01*
X80922Y65162D01*
X81051Y65218D01*
X81172Y65301D01*
X81292Y65412D01*
X81301Y65431D01*
X81338Y65477D01*
X81384Y65551D01*
X81440Y65671D01*
X81495Y65810D01*
X81541Y65995D01*
X81578Y66207D01*
X81587Y66457D01*
Y68472D01*
D02*
G37*
G36*
X685640Y199149D02*
X680758D01*
Y197633D01*
X680767Y197568D01*
X680777Y197430D01*
X680786Y197273D01*
X680804Y197106D01*
X680832Y196940D01*
X680869Y196801D01*
X680878Y196783D01*
X680888Y196736D01*
X680915Y196672D01*
X680952Y196588D01*
X681008Y196496D01*
X681063Y196404D01*
X681128Y196311D01*
X681202Y196219D01*
X681220Y196209D01*
X681257Y196172D01*
X681322Y196117D01*
X681414Y196052D01*
X681535Y195978D01*
X681673Y195895D01*
X681831Y195821D01*
X682006Y195756D01*
X682015D01*
X682034Y195747D01*
X682062Y195738D01*
X682099Y195729D01*
X682145Y195719D01*
X682210Y195701D01*
X682274Y195682D01*
X682348Y195664D01*
X682533Y195636D01*
X682746Y195608D01*
X682986Y195590D01*
X683245Y195581D01*
X683254D01*
X683291D01*
X683337D01*
X683411Y195590D01*
X683495D01*
X683587Y195599D01*
X683698Y195608D01*
X683809Y195618D01*
X684059Y195664D01*
X684318Y195719D01*
X684558Y195803D01*
X684678Y195858D01*
X684780Y195914D01*
X684789D01*
X684808Y195932D01*
X684835Y195951D01*
X684872Y195969D01*
X684965Y196043D01*
X685076Y196135D01*
X685196Y196256D01*
X685316Y196394D01*
X685418Y196551D01*
X685501Y196718D01*
X685510Y196736D01*
X685519Y196783D01*
X685547Y196866D01*
X685575Y196986D01*
X685593Y197134D01*
X685621Y197319D01*
X685630Y197430D01*
Y197550D01*
X685640Y197670D01*
Y199149D01*
D02*
G37*
G36*
X615640D02*
X610758D01*
Y197633D01*
X610767Y197568D01*
X610776Y197430D01*
X610786Y197273D01*
X610804Y197106D01*
X610832Y196940D01*
X610869Y196801D01*
X610878Y196783D01*
X610887Y196736D01*
X610915Y196672D01*
X610952Y196588D01*
X611008Y196496D01*
X611063Y196404D01*
X611128Y196311D01*
X611202Y196219D01*
X611220Y196209D01*
X611257Y196172D01*
X611322Y196117D01*
X611414Y196052D01*
X611535Y195978D01*
X611673Y195895D01*
X611830Y195821D01*
X612006Y195756D01*
X612015D01*
X612034Y195747D01*
X612062Y195738D01*
X612099Y195729D01*
X612145Y195719D01*
X612210Y195701D01*
X612274Y195682D01*
X612348Y195664D01*
X612533Y195636D01*
X612746Y195608D01*
X612986Y195590D01*
X613245Y195581D01*
X613254D01*
X613291D01*
X613338D01*
X613411Y195590D01*
X613495D01*
X613587Y195599D01*
X613698Y195608D01*
X613809Y195618D01*
X614059Y195664D01*
X614318Y195719D01*
X614558Y195803D01*
X614678Y195858D01*
X614780Y195914D01*
X614789D01*
X614808Y195932D01*
X614835Y195951D01*
X614872Y195969D01*
X614965Y196043D01*
X615076Y196135D01*
X615196Y196256D01*
X615316Y196394D01*
X615418Y196551D01*
X615501Y196718D01*
X615510Y196736D01*
X615519Y196783D01*
X615547Y196866D01*
X615575Y196986D01*
X615593Y197134D01*
X615621Y197319D01*
X615630Y197430D01*
Y197550D01*
X615640Y197670D01*
Y199149D01*
D02*
G37*
G36*
X543931Y199149D02*
X539050D01*
Y197633D01*
X539059Y197568D01*
X539068Y197430D01*
X539077Y197273D01*
X539096Y197106D01*
X539124Y196940D01*
X539161Y196801D01*
X539170Y196783D01*
X539179Y196736D01*
X539207Y196672D01*
X539244Y196588D01*
X539299Y196496D01*
X539355Y196404D01*
X539420Y196311D01*
X539493Y196219D01*
X539512Y196209D01*
X539549Y196173D01*
X539614Y196117D01*
X539706Y196052D01*
X539826Y195978D01*
X539965Y195895D01*
X540122Y195821D01*
X540298Y195756D01*
X540307D01*
X540326Y195747D01*
X540353Y195738D01*
X540390Y195729D01*
X540437Y195719D01*
X540501Y195701D01*
X540566Y195682D01*
X540640Y195664D01*
X540825Y195636D01*
X541037Y195609D01*
X541278Y195590D01*
X541537Y195581D01*
X541546D01*
X541583D01*
X541629D01*
X541703Y195590D01*
X541786D01*
X541879Y195599D01*
X541990Y195609D01*
X542101Y195618D01*
X542350Y195664D01*
X542609Y195719D01*
X542850Y195803D01*
X542970Y195858D01*
X543072Y195914D01*
X543081D01*
X543099Y195932D01*
X543127Y195951D01*
X543164Y195969D01*
X543256Y196043D01*
X543367Y196136D01*
X543488Y196256D01*
X543608Y196394D01*
X543709Y196551D01*
X543793Y196718D01*
X543802Y196736D01*
X543811Y196783D01*
X543839Y196866D01*
X543867Y196986D01*
X543885Y197134D01*
X543913Y197319D01*
X543922Y197430D01*
Y197550D01*
X543931Y197670D01*
Y199149D01*
D02*
G37*
G36*
X475640Y199149D02*
X470758D01*
Y197633D01*
X470767Y197568D01*
X470776Y197430D01*
X470786Y197273D01*
X470804Y197106D01*
X470832Y196940D01*
X470869Y196801D01*
X470878Y196783D01*
X470887Y196736D01*
X470915Y196672D01*
X470952Y196588D01*
X471008Y196496D01*
X471063Y196404D01*
X471128Y196311D01*
X471202Y196219D01*
X471220Y196209D01*
X471257Y196172D01*
X471322Y196117D01*
X471414Y196052D01*
X471535Y195978D01*
X471673Y195895D01*
X471830Y195821D01*
X472006Y195756D01*
X472015D01*
X472034Y195747D01*
X472062Y195738D01*
X472099Y195729D01*
X472145Y195719D01*
X472210Y195701D01*
X472274Y195682D01*
X472348Y195664D01*
X472533Y195636D01*
X472746Y195608D01*
X472986Y195590D01*
X473245Y195581D01*
X473254D01*
X473291D01*
X473338D01*
X473411Y195590D01*
X473495D01*
X473587Y195599D01*
X473698Y195608D01*
X473809Y195618D01*
X474059Y195664D01*
X474318Y195719D01*
X474558Y195803D01*
X474678Y195858D01*
X474780Y195914D01*
X474789D01*
X474808Y195932D01*
X474835Y195951D01*
X474872Y195969D01*
X474965Y196043D01*
X475076Y196135D01*
X475196Y196256D01*
X475316Y196394D01*
X475418Y196551D01*
X475501Y196718D01*
X475510Y196736D01*
X475519Y196783D01*
X475547Y196866D01*
X475575Y196986D01*
X475593Y197134D01*
X475621Y197319D01*
X475630Y197430D01*
Y197550D01*
X475640Y197670D01*
Y199149D01*
D02*
G37*
G36*
X472256Y193371D02*
Y191355D01*
X475122D01*
X472256Y193371D01*
D02*
G37*
G36*
X405751Y199149D02*
X400869D01*
Y197633D01*
X400878Y197568D01*
X400887Y197430D01*
X400897Y197273D01*
X400915Y197106D01*
X400943Y196940D01*
X400980Y196801D01*
X400989Y196783D01*
X400998Y196736D01*
X401026Y196672D01*
X401063Y196588D01*
X401119Y196496D01*
X401174Y196404D01*
X401239Y196311D01*
X401313Y196219D01*
X401331Y196209D01*
X401368Y196172D01*
X401433Y196117D01*
X401525Y196052D01*
X401646Y195978D01*
X401784Y195895D01*
X401941Y195821D01*
X402117Y195756D01*
X402126D01*
X402145Y195747D01*
X402173Y195738D01*
X402210Y195729D01*
X402256Y195719D01*
X402321Y195701D01*
X402385Y195682D01*
X402459Y195664D01*
X402644Y195636D01*
X402857Y195608D01*
X403097Y195590D01*
X403356Y195581D01*
X403365D01*
X403402D01*
X403448D01*
X403522Y195590D01*
X403606D01*
X403698Y195599D01*
X403809Y195608D01*
X403920Y195618D01*
X404170Y195664D01*
X404428Y195719D01*
X404669Y195803D01*
X404789Y195858D01*
X404891Y195914D01*
X404900D01*
X404919Y195932D01*
X404946Y195951D01*
X404983Y195969D01*
X405076Y196043D01*
X405187Y196135D01*
X405307Y196256D01*
X405427Y196394D01*
X405529Y196551D01*
X405612Y196718D01*
X405621Y196736D01*
X405630Y196783D01*
X405658Y196866D01*
X405686Y196986D01*
X405704Y197134D01*
X405732Y197319D01*
X405741Y197430D01*
Y197550D01*
X405751Y197670D01*
Y199149D01*
D02*
G37*
G36*
X335751Y199149D02*
X330869D01*
Y197633D01*
X330878Y197568D01*
X330887Y197430D01*
X330897Y197273D01*
X330915Y197106D01*
X330943Y196940D01*
X330980Y196801D01*
X330989Y196783D01*
X330998Y196736D01*
X331026Y196672D01*
X331063Y196588D01*
X331119Y196496D01*
X331174Y196404D01*
X331239Y196311D01*
X331313Y196219D01*
X331331Y196209D01*
X331368Y196172D01*
X331433Y196117D01*
X331525Y196052D01*
X331646Y195978D01*
X331784Y195895D01*
X331941Y195821D01*
X332117Y195756D01*
X332126D01*
X332145Y195747D01*
X332173Y195738D01*
X332210Y195729D01*
X332256Y195719D01*
X332321Y195701D01*
X332385Y195682D01*
X332459Y195664D01*
X332644Y195636D01*
X332857Y195608D01*
X333097Y195590D01*
X333356Y195581D01*
X333365D01*
X333402D01*
X333448D01*
X333522Y195590D01*
X333606D01*
X333698Y195599D01*
X333809Y195608D01*
X333920Y195618D01*
X334170Y195664D01*
X334428Y195719D01*
X334669Y195803D01*
X334789Y195858D01*
X334891Y195914D01*
X334900D01*
X334919Y195932D01*
X334946Y195951D01*
X334983Y195969D01*
X335076Y196043D01*
X335187Y196135D01*
X335307Y196256D01*
X335427Y196394D01*
X335529Y196551D01*
X335612Y196718D01*
X335621Y196736D01*
X335630Y196783D01*
X335658Y196866D01*
X335686Y196986D01*
X335704Y197134D01*
X335732Y197319D01*
X335741Y197430D01*
Y197550D01*
X335751Y197670D01*
Y199149D01*
D02*
G37*
G36*
X332182Y193001D02*
X332163D01*
X332117D01*
X332034Y192992D01*
X331932Y192983D01*
X331812Y192964D01*
X331683Y192927D01*
X331544Y192890D01*
X331405Y192835D01*
X331387Y192826D01*
X331340Y192798D01*
X331276Y192761D01*
X331193Y192705D01*
X331109Y192641D01*
X331008Y192557D01*
X330924Y192465D01*
X330841Y192354D01*
X330832Y192335D01*
X330813Y192299D01*
X330776Y192234D01*
X330749Y192151D01*
X330712Y192058D01*
X330675Y191947D01*
X330656Y191827D01*
X330647Y191698D01*
Y191651D01*
X330656Y191614D01*
X330666Y191522D01*
X330693Y191402D01*
X330749Y191272D01*
X330813Y191124D01*
X330915Y190976D01*
X330971Y190902D01*
X331045Y190838D01*
X331054D01*
X331063Y190819D01*
X331119Y190782D01*
X331211Y190727D01*
X331331Y190653D01*
X331488Y190588D01*
X331673Y190533D01*
X331886Y190496D01*
X332136Y190477D01*
X332145D01*
X332163D01*
X332200D01*
X332247Y190486D01*
X332302D01*
X332367Y190496D01*
X332515Y190523D01*
X332681Y190560D01*
X332857Y190625D01*
X333023Y190718D01*
X333180Y190838D01*
X333199Y190856D01*
X333245Y190902D01*
X333301Y190976D01*
X333374Y191078D01*
X333448Y191208D01*
X333504Y191355D01*
X333550Y191531D01*
X333569Y191725D01*
Y191781D01*
X333559Y191818D01*
X333550Y191910D01*
X333522Y192040D01*
X333476Y192178D01*
X333402Y192335D01*
X333310Y192483D01*
X333180Y192631D01*
X333162Y192650D01*
X333116Y192687D01*
X333032Y192752D01*
X332912Y192816D01*
X332774Y192881D01*
X332598Y192946D01*
X332404Y192983D01*
X332182Y193001D01*
D02*
G37*
G36*
X265640Y199149D02*
X260758D01*
Y197633D01*
X260767Y197568D01*
X260777Y197430D01*
X260786Y197273D01*
X260804Y197106D01*
X260832Y196940D01*
X260869Y196801D01*
X260878Y196783D01*
X260887Y196736D01*
X260915Y196672D01*
X260952Y196588D01*
X261008Y196496D01*
X261063Y196404D01*
X261128Y196311D01*
X261202Y196219D01*
X261220Y196209D01*
X261257Y196172D01*
X261322Y196117D01*
X261414Y196052D01*
X261535Y195978D01*
X261673Y195895D01*
X261831Y195821D01*
X262006Y195756D01*
X262015D01*
X262034Y195747D01*
X262062Y195738D01*
X262099Y195729D01*
X262145Y195719D01*
X262210Y195701D01*
X262274Y195682D01*
X262348Y195664D01*
X262533Y195636D01*
X262746Y195608D01*
X262986Y195590D01*
X263245Y195581D01*
X263254D01*
X263291D01*
X263337D01*
X263412Y195590D01*
X263495D01*
X263587Y195599D01*
X263698Y195608D01*
X263809Y195618D01*
X264059Y195664D01*
X264318Y195719D01*
X264558Y195803D01*
X264678Y195858D01*
X264780Y195914D01*
X264789D01*
X264808Y195932D01*
X264835Y195951D01*
X264872Y195969D01*
X264965Y196043D01*
X265076Y196135D01*
X265196Y196256D01*
X265316Y196394D01*
X265418Y196551D01*
X265501Y196718D01*
X265510Y196736D01*
X265520Y196783D01*
X265547Y196866D01*
X265575Y196986D01*
X265593Y197134D01*
X265621Y197319D01*
X265630Y197430D01*
Y197550D01*
X265640Y197670D01*
Y199149D01*
D02*
G37*
G36*
X195751Y199149D02*
X190869D01*
Y197633D01*
X190878Y197568D01*
X190887Y197430D01*
X190897Y197273D01*
X190915Y197106D01*
X190943Y196940D01*
X190980Y196801D01*
X190989Y196783D01*
X190998Y196736D01*
X191026Y196672D01*
X191063Y196588D01*
X191119Y196496D01*
X191174Y196404D01*
X191239Y196311D01*
X191313Y196219D01*
X191331Y196209D01*
X191368Y196172D01*
X191433Y196117D01*
X191525Y196052D01*
X191646Y195978D01*
X191784Y195895D01*
X191941Y195821D01*
X192117Y195756D01*
X192126D01*
X192145Y195747D01*
X192173Y195738D01*
X192209Y195729D01*
X192256Y195719D01*
X192320Y195701D01*
X192385Y195682D01*
X192459Y195664D01*
X192644Y195636D01*
X192857Y195608D01*
X193097Y195590D01*
X193356Y195581D01*
X193365D01*
X193402D01*
X193449D01*
X193522Y195590D01*
X193606D01*
X193698Y195599D01*
X193809Y195608D01*
X193920Y195618D01*
X194170Y195664D01*
X194429Y195719D01*
X194669Y195803D01*
X194789Y195858D01*
X194891Y195914D01*
X194900D01*
X194918Y195932D01*
X194946Y195951D01*
X194983Y195969D01*
X195076Y196043D01*
X195187Y196135D01*
X195307Y196256D01*
X195427Y196394D01*
X195529Y196551D01*
X195612Y196718D01*
X195621Y196736D01*
X195630Y196783D01*
X195658Y196866D01*
X195686Y196986D01*
X195704Y197134D01*
X195732Y197319D01*
X195741Y197430D01*
Y197550D01*
X195751Y197670D01*
Y199149D01*
D02*
G37*
G36*
X194900Y192816D02*
X194891D01*
X194881D01*
X194826Y192807D01*
X194743Y192798D01*
X194641Y192779D01*
X194521Y192742D01*
X194401Y192696D01*
X194271Y192622D01*
X194160Y192530D01*
X194151Y192520D01*
X194114Y192474D01*
X194068Y192409D01*
X194022Y192326D01*
X193966Y192215D01*
X193920Y192086D01*
X193883Y191938D01*
X193874Y191772D01*
Y191753D01*
X193883Y191698D01*
X193892Y191614D01*
X193911Y191503D01*
X193948Y191383D01*
X193994Y191263D01*
X194068Y191134D01*
X194160Y191023D01*
X194170Y191013D01*
X194216Y190976D01*
X194271Y190930D01*
X194354Y190875D01*
X194456Y190819D01*
X194576Y190773D01*
X194715Y190736D01*
X194863Y190727D01*
X194872D01*
X194881D01*
X194937D01*
X195020Y190745D01*
X195122Y190764D01*
X195233Y190801D01*
X195353Y190856D01*
X195473Y190930D01*
X195593Y191032D01*
X195603Y191041D01*
X195640Y191087D01*
X195686Y191152D01*
X195741Y191235D01*
X195797Y191346D01*
X195843Y191466D01*
X195880Y191614D01*
X195889Y191772D01*
Y191845D01*
X195871Y191929D01*
X195852Y192040D01*
X195815Y192160D01*
X195769Y192289D01*
X195695Y192409D01*
X195593Y192530D01*
X195584Y192539D01*
X195547Y192576D01*
X195483Y192622D01*
X195399Y192668D01*
X195298Y192724D01*
X195177Y192770D01*
X195048Y192807D01*
X194900Y192816D01*
D02*
G37*
G36*
X191951Y193075D02*
X191932D01*
X191895D01*
X191831Y193066D01*
X191747Y193057D01*
X191646Y193038D01*
X191535Y193010D01*
X191424Y192973D01*
X191304Y192927D01*
X191294Y192918D01*
X191248Y192899D01*
X191192Y192862D01*
X191128Y192807D01*
X191045Y192742D01*
X190961Y192659D01*
X190887Y192567D01*
X190814Y192456D01*
X190804Y192437D01*
X190786Y192400D01*
X190758Y192335D01*
X190730Y192252D01*
X190702Y192151D01*
X190675Y192030D01*
X190656Y191901D01*
X190647Y191772D01*
Y191716D01*
X190656Y191679D01*
X190665Y191568D01*
X190693Y191439D01*
X190739Y191291D01*
X190795Y191134D01*
X190887Y190986D01*
X191008Y190838D01*
X191026Y190819D01*
X191072Y190782D01*
X191155Y190718D01*
X191257Y190653D01*
X191387Y190588D01*
X191544Y190523D01*
X191729Y190486D01*
X191923Y190468D01*
X191932D01*
X191951D01*
X191978D01*
X192015Y190477D01*
X192117Y190486D01*
X192256Y190514D01*
X192395Y190560D01*
X192552Y190625D01*
X192709Y190718D01*
X192857Y190847D01*
X192875Y190865D01*
X192912Y190912D01*
X192977Y190995D01*
X193051Y191106D01*
X193116Y191245D01*
X193180Y191411D01*
X193217Y191596D01*
X193236Y191799D01*
Y191855D01*
X193227Y191892D01*
X193217Y191993D01*
X193190Y192123D01*
X193143Y192271D01*
X193079Y192419D01*
X192986Y192576D01*
X192866Y192715D01*
X192847Y192733D01*
X192801Y192770D01*
X192718Y192826D01*
X192616Y192890D01*
X192478Y192964D01*
X192320Y193020D01*
X192145Y193057D01*
X191951Y193075D01*
D02*
G37*
G36*
X125751Y199149D02*
X120869D01*
Y197633D01*
X120878Y197568D01*
X120887Y197430D01*
X120897Y197273D01*
X120915Y197106D01*
X120943Y196940D01*
X120980Y196801D01*
X120989Y196783D01*
X120998Y196736D01*
X121026Y196672D01*
X121063Y196588D01*
X121119Y196496D01*
X121174Y196404D01*
X121239Y196311D01*
X121313Y196219D01*
X121331Y196209D01*
X121368Y196172D01*
X121433Y196117D01*
X121525Y196052D01*
X121646Y195978D01*
X121784Y195895D01*
X121941Y195821D01*
X122117Y195756D01*
X122126D01*
X122145Y195747D01*
X122173Y195738D01*
X122210Y195729D01*
X122256Y195719D01*
X122320Y195701D01*
X122385Y195682D01*
X122459Y195664D01*
X122644Y195636D01*
X122857Y195608D01*
X123097Y195590D01*
X123356Y195581D01*
X123365D01*
X123402D01*
X123448D01*
X123522Y195590D01*
X123606D01*
X123698Y195599D01*
X123809Y195608D01*
X123920Y195618D01*
X124170Y195664D01*
X124429Y195719D01*
X124669Y195803D01*
X124789Y195858D01*
X124891Y195914D01*
X124900D01*
X124918Y195932D01*
X124946Y195951D01*
X124983Y195969D01*
X125076Y196043D01*
X125187Y196135D01*
X125307Y196256D01*
X125427Y196394D01*
X125529Y196551D01*
X125612Y196718D01*
X125621Y196736D01*
X125630Y196783D01*
X125658Y196866D01*
X125686Y196986D01*
X125704Y197134D01*
X125732Y197319D01*
X125741Y197430D01*
Y197550D01*
X125751Y197670D01*
Y199149D01*
D02*
G37*
G36*
X124345Y193066D02*
X124336D01*
X124318D01*
X124290D01*
X124244Y193057D01*
X124188D01*
X124133Y193047D01*
X123994Y193020D01*
X123837Y192973D01*
X123670Y192918D01*
X123504Y192826D01*
X123356Y192705D01*
X123337Y192687D01*
X123301Y192641D01*
X123236Y192557D01*
X123171Y192456D01*
X123097Y192317D01*
X123032Y192160D01*
X122995Y191984D01*
X122977Y191790D01*
Y191735D01*
X122986Y191698D01*
X122995Y191596D01*
X123023Y191476D01*
X123069Y191328D01*
X123134Y191180D01*
X123227Y191032D01*
X123356Y190893D01*
X123375Y190875D01*
X123430Y190838D01*
X123513Y190782D01*
X123633Y190708D01*
X123781Y190644D01*
X123957Y190588D01*
X124170Y190551D01*
X124410Y190533D01*
X124419D01*
X124438D01*
X124475D01*
X124521Y190542D01*
X124586D01*
X124650Y190551D01*
X124798Y190579D01*
X124974Y190616D01*
X125159Y190681D01*
X125335Y190773D01*
X125492Y190893D01*
X125501D01*
X125510Y190912D01*
X125556Y190958D01*
X125621Y191032D01*
X125695Y191134D01*
X125760Y191263D01*
X125825Y191411D01*
X125871Y191577D01*
X125889Y191670D01*
Y191818D01*
X125880Y191855D01*
X125871Y191956D01*
X125834Y192077D01*
X125788Y192225D01*
X125704Y192382D01*
X125603Y192539D01*
X125529Y192613D01*
X125455Y192687D01*
X125445D01*
X125436Y192705D01*
X125408Y192724D01*
X125381Y192742D01*
X125288Y192807D01*
X125159Y192872D01*
X125002Y192946D01*
X124808Y193010D01*
X124586Y193047D01*
X124345Y193066D01*
D02*
G37*
G36*
X55751Y199149D02*
X50869D01*
Y197633D01*
X50878Y197568D01*
X50887Y197430D01*
X50897Y197273D01*
X50915Y197106D01*
X50943Y196940D01*
X50980Y196801D01*
X50989Y196783D01*
X50998Y196736D01*
X51026Y196672D01*
X51063Y196588D01*
X51119Y196496D01*
X51174Y196404D01*
X51239Y196311D01*
X51313Y196219D01*
X51331Y196209D01*
X51368Y196172D01*
X51433Y196117D01*
X51525Y196052D01*
X51646Y195978D01*
X51784Y195895D01*
X51941Y195821D01*
X52117Y195756D01*
X52126D01*
X52145Y195747D01*
X52173Y195738D01*
X52210Y195729D01*
X52256Y195719D01*
X52320Y195701D01*
X52385Y195682D01*
X52459Y195664D01*
X52644Y195636D01*
X52857Y195608D01*
X53097Y195590D01*
X53356Y195581D01*
X53365D01*
X53402D01*
X53449D01*
X53522Y195590D01*
X53606D01*
X53698Y195599D01*
X53809Y195608D01*
X53920Y195618D01*
X54170Y195664D01*
X54429Y195719D01*
X54669Y195803D01*
X54789Y195858D01*
X54891Y195914D01*
X54900D01*
X54918Y195932D01*
X54946Y195951D01*
X54983Y195969D01*
X55076Y196043D01*
X55187Y196135D01*
X55307Y196256D01*
X55427Y196394D01*
X55529Y196551D01*
X55612Y196718D01*
X55621Y196736D01*
X55630Y196783D01*
X55658Y196866D01*
X55686Y196986D01*
X55704Y197134D01*
X55732Y197319D01*
X55741Y197430D01*
Y197550D01*
X55751Y197670D01*
Y199149D01*
D02*
G37*
G36*
X53264Y188092D02*
X53245D01*
X53199D01*
X53116D01*
X53005Y188083D01*
X52884D01*
X52737Y188073D01*
X52579Y188064D01*
X52413Y188046D01*
X52052Y187999D01*
X51877Y187972D01*
X51710Y187935D01*
X51553Y187898D01*
X51405Y187842D01*
X51276Y187787D01*
X51165Y187722D01*
X51156D01*
X51146Y187703D01*
X51082Y187657D01*
X50998Y187574D01*
X50906Y187472D01*
X50813Y187334D01*
X50730Y187176D01*
X50666Y187001D01*
X50656Y186908D01*
X50647Y186807D01*
Y186751D01*
X50656Y186714D01*
X50675Y186622D01*
X50712Y186492D01*
X50777Y186354D01*
X50869Y186196D01*
X50924Y186122D01*
X50998Y186049D01*
X51072Y185975D01*
X51165Y185900D01*
X51174D01*
X51193Y185882D01*
X51220Y185864D01*
X51266Y185845D01*
X51331Y185808D01*
X51414Y185780D01*
X51507Y185743D01*
X51618Y185706D01*
X51757Y185679D01*
X51905Y185642D01*
X52080Y185605D01*
X52265Y185577D01*
X52487Y185558D01*
X52718Y185540D01*
X52977Y185522D01*
X53264D01*
X53273D01*
X53282D01*
X53328D01*
X53411D01*
X53522Y185531D01*
X53643D01*
X53791Y185540D01*
X53948Y185549D01*
X54123Y185568D01*
X54475Y185614D01*
X54650Y185642D01*
X54817Y185679D01*
X54974Y185716D01*
X55122Y185771D01*
X55251Y185827D01*
X55362Y185891D01*
X55372D01*
X55381Y185910D01*
X55409Y185928D01*
X55445Y185956D01*
X55529Y186039D01*
X55630Y186141D01*
X55723Y186280D01*
X55806Y186437D01*
X55843Y186520D01*
X55871Y186612D01*
X55880Y186714D01*
X55889Y186816D01*
Y186871D01*
X55880Y186908D01*
X55862Y187010D01*
X55834Y187130D01*
X55778Y187269D01*
X55695Y187417D01*
X55640Y187491D01*
X55584Y187565D01*
X55510Y187630D01*
X55427Y187694D01*
X55418D01*
X55399Y187713D01*
X55362Y187731D01*
X55316Y187759D01*
X55242Y187787D01*
X55159Y187824D01*
X55057Y187851D01*
X54937Y187888D01*
X54798Y187925D01*
X54641Y187962D01*
X54465Y187999D01*
X54271Y188027D01*
X54049Y188055D01*
X53809Y188073D01*
X53550Y188083D01*
X53264Y188092D01*
D02*
G37*
%LPD*%
D12*
X486571Y20475D02*
X569534D01*
X486571D02*
Y79525D01*
X569534D01*
Y20475D02*
Y79525D01*
X27773Y119223D02*
X127573D01*
X27773Y19423D02*
Y119223D01*
Y19423D02*
X127573D01*
Y119223D01*
X665800Y21100D02*
X694200D01*
Y78900D01*
X665800D02*
X694200D01*
X665800Y21100D02*
Y78900D01*
M02*
