G04*
G04 #@! TF.GenerationSoftware,Altium Limited,Altium Designer,21.3.2 (30)*
G04*
G04 Layer_Color=2752767*
%FSLAX44Y44*%
%MOMM*%
G71*
G04*
G04 #@! TF.SameCoordinates,17D3A228-CD5A-42E2-9B72-4466C132A87E*
G04*
G04*
G04 #@! TF.FilePolarity,Positive*
G04*
G01*
G75*
%ADD36C,0.0508*%
%ADD37C,0.0677*%
D36*
X50091Y67291D02*
Y71355D01*
X54155D01*
Y67291D01*
X50091D01*
X75491Y41891D02*
Y45955D01*
X79555D01*
Y41891D01*
X75491D01*
Y92691D02*
Y96755D01*
X79555D01*
Y92691D01*
X75491D01*
X680000Y60668D02*
X677968Y64732D01*
X682032D01*
X680000Y60668D01*
Y35268D02*
X677968Y39332D01*
X682032D01*
X680000Y35268D01*
X299999Y107967D02*
X301015Y108983D01*
X302031D01*
X301015Y109999D01*
X302031Y111015D01*
X301015D01*
X299999Y112031D01*
X298983Y111015D01*
X297967D01*
X298983Y109999D01*
X297967Y108983D01*
X298983D01*
X299999Y107967D01*
X312699Y95269D02*
X313715Y96285D01*
X314731D01*
X313715Y97301D01*
X314731Y98317D01*
X313715D01*
X312699Y99333D01*
X311683Y98317D01*
X310667D01*
X311683Y97301D01*
X310667Y96285D01*
X311683D01*
X312699Y95269D01*
X430000Y67818D02*
X431016Y68834D01*
X432032D01*
X431016Y69850D01*
X432032Y70866D01*
X431016D01*
X430000Y71882D01*
X428984Y70866D01*
X427968D01*
X428984Y69850D01*
X427968Y68834D01*
X428984D01*
X430000Y67818D01*
X75742Y127218D02*
X76758Y128234D01*
X77774D01*
X76758Y129250D01*
X77774Y130266D01*
X76758D01*
X75742Y131282D01*
X74726Y130266D01*
X73710D01*
X74726Y129250D01*
X73710Y128234D01*
X74726D01*
X75742Y127218D01*
X350000Y107968D02*
X351016Y108984D01*
X352032D01*
X351016Y110000D01*
X352032Y111016D01*
X351016D01*
X350000Y112032D01*
X348984Y111016D01*
X347968D01*
X348984Y110000D01*
X347968Y108984D01*
X348984D01*
X350000Y107968D01*
X470000Y47968D02*
X471016Y48984D01*
X472032D01*
X471016Y50000D01*
X472032Y51016D01*
X471016D01*
X470000Y52032D01*
X468984Y51016D01*
X467968D01*
X468984Y50000D01*
X467968Y48984D01*
X468984D01*
X470000Y47968D01*
X626032Y47325D02*
X627048Y48341D01*
X628064D01*
X627048Y49357D01*
X628064Y50373D01*
X627048D01*
X626032Y51389D01*
X625016Y50373D01*
X624000D01*
X625016Y49357D01*
X624000Y48341D01*
X625016D01*
X626032Y47325D01*
X625274Y8652D02*
X626290Y9668D01*
X627306D01*
X626290Y10684D01*
X627306Y11700D01*
X626290D01*
X625274Y12716D01*
X624258Y11700D01*
X623242D01*
X624258Y10684D01*
X623242Y9668D01*
X624258D01*
X625274Y8652D01*
X590000Y47968D02*
X591016Y48984D01*
X592032D01*
X591016Y50000D01*
X592032Y51016D01*
X591016D01*
X590000Y52032D01*
X588984Y51016D01*
X587968D01*
X588984Y50000D01*
X587968Y48984D01*
X588984D01*
X590000Y47968D01*
X410000Y37968D02*
X411016Y38984D01*
X412032D01*
X411016Y40000D01*
X412032Y41016D01*
X411016D01*
X410000Y42032D01*
X408984Y41016D01*
X407968D01*
X408984Y40000D01*
X407968Y38984D01*
X408984D01*
X410000Y37968D01*
X480000Y67968D02*
X481016Y68984D01*
X482032D01*
X481016Y70000D01*
X482032Y71016D01*
X481016D01*
X480000Y72032D01*
X478984Y71016D01*
X477968D01*
X478984Y70000D01*
X477968Y68984D01*
X478984D01*
X480000Y67968D01*
X280000D02*
X281016Y68984D01*
X282032D01*
X281016Y70000D01*
X282032Y71016D01*
X281016D01*
X280000Y72032D01*
X278984Y71016D01*
X277968D01*
X278984Y70000D01*
X277968Y68984D01*
X278984D01*
X280000Y67968D01*
X133923Y41891D02*
X134939Y42907D01*
X135955D01*
X134939Y43923D01*
X135955Y44939D01*
X134939D01*
X133923Y45955D01*
X132907Y44939D01*
X131891D01*
X132907Y43923D01*
X131891Y42907D01*
X132907D01*
X133923Y41891D01*
X530000Y87968D02*
X531016Y88984D01*
X532032D01*
X531016Y90000D01*
X532032Y91016D01*
X531016D01*
X530000Y92032D01*
X528984Y91016D01*
X527968D01*
X528984Y90000D01*
X527968Y88984D01*
X528984D01*
X530000Y87968D01*
X363499Y11467D02*
X364515Y12483D01*
X365531D01*
X364515Y13499D01*
X365531Y14515D01*
X364515D01*
X363499Y15531D01*
X362483Y14515D01*
X361467D01*
X362483Y13499D01*
X361467Y12483D01*
X362483D01*
X363499Y11467D01*
X300000Y227968D02*
X301016Y228984D01*
X302032D01*
X301016Y230000D01*
X302032Y231016D01*
X301016D01*
X300000Y232032D01*
X298984Y231016D01*
X297968D01*
X298984Y230000D01*
X297968Y228984D01*
X298984D01*
X300000Y227968D01*
X380000Y127968D02*
X381016Y128984D01*
X382032D01*
X381016Y130000D01*
X382032Y131016D01*
X381016D01*
X380000Y132032D01*
X378984Y131016D01*
X377968D01*
X378984Y130000D01*
X377968Y128984D01*
X378984D01*
X380000Y127968D01*
X520000Y137968D02*
X521016Y138984D01*
X522032D01*
X521016Y140000D01*
X522032Y141016D01*
X521016D01*
X520000Y142032D01*
X518984Y141016D01*
X517968D01*
X518984Y140000D01*
X517968Y138984D01*
X518984D01*
X520000Y137968D01*
X450000D02*
X451016Y138984D01*
X452032D01*
X451016Y140000D01*
X452032Y141016D01*
X451016D01*
X450000Y142032D01*
X448984Y141016D01*
X447968D01*
X448984Y140000D01*
X447968Y138984D01*
X448984D01*
X450000Y137968D01*
X580000Y87968D02*
X581016Y88984D01*
X582032D01*
X581016Y90000D01*
X582032Y91016D01*
X581016D01*
X580000Y92032D01*
X578984Y91016D01*
X577968D01*
X578984Y90000D01*
X577968Y88984D01*
X578984D01*
X580000Y87968D01*
X500000Y10897D02*
X501016Y11913D01*
X502032D01*
X501016Y12929D01*
X502032Y13945D01*
X501016D01*
X500000Y14961D01*
X498984Y13945D01*
X497968D01*
X498984Y12929D01*
X497968Y11913D01*
X498984D01*
X500000Y10897D01*
D37*
X682032Y187300D02*
G03*
X682032Y187300I-2032J0D01*
G01*
Y212700D02*
G03*
X682032Y212700I-2032J0D01*
G01*
X612032Y187300D02*
G03*
X612032Y187300I-2032J0D01*
G01*
Y212700D02*
G03*
X612032Y212700I-2032J0D01*
G01*
X540213Y187300D02*
G03*
X540213Y187300I-2032J0D01*
G01*
Y212700D02*
G03*
X540213Y212700I-2032J0D01*
G01*
X472032Y187300D02*
G03*
X472032Y187300I-2032J0D01*
G01*
Y212700D02*
G03*
X472032Y212700I-2032J0D01*
G01*
X402032Y187300D02*
G03*
X402032Y187300I-2032J0D01*
G01*
Y212700D02*
G03*
X402032Y212700I-2032J0D01*
G01*
X332032Y187300D02*
G03*
X332032Y187300I-2032J0D01*
G01*
Y212700D02*
G03*
X332032Y212700I-2032J0D01*
G01*
X262032Y187300D02*
G03*
X262032Y187300I-2032J0D01*
G01*
Y212700D02*
G03*
X262032Y212700I-2032J0D01*
G01*
X192032Y187300D02*
G03*
X192032Y187300I-2032J0D01*
G01*
Y212700D02*
G03*
X192032Y212700I-2032J0D01*
G01*
X122032Y187300D02*
G03*
X122032Y187300I-2032J0D01*
G01*
Y212700D02*
G03*
X122032Y212700I-2032J0D01*
G01*
X52032Y187300D02*
G03*
X52032Y187300I-2032J0D01*
G01*
Y212700D02*
G03*
X52032Y212700I-2032J0D01*
G01*
M02*
