M48
;Layer_Color=9474304
;FILE_FORMAT=4:4
METRIC,LZ
;TYPE=PLATED
T1F00S00C0.7112
T2F00S00C0.7500
T3F00S00C0.9500
T4F00S00C1.0200
%
T01
X00625274Y00010684
X00626032Y00049357
X0059Y0005
X0058Y0009
X0053
X0052Y0014
X0045
X0038Y0013
X0035Y0011
X00312699Y00097301
X00299999Y00109999
X0028Y0007
X00363499Y00013499
X0041Y0004
X0043Y0006985
X0048Y0007
X0047Y0005
X005Y00012929
X003Y0023
X00075742Y0012925
X00133923Y00043923
T02
X00052123Y00069323
X00077523Y00043923
Y00094723
T03
X0061Y001873
Y002127
X0068
Y001873
X00538181Y001873
Y002127
X0047Y002127
Y001873
X004
Y002127
X0033
Y001873
X0026
Y002127
X0019
Y001873
X0012
Y002127
X0005
Y001873
T04
X0068Y000373
Y000627
M30
